<?xml version="1.0" encoding="utf-8"?>
<svg version="1.1" id="Layer_1" xmlns="http://www.w3.org/2000/svg" xmlns:xlink="http://www.w3.org/1999/xlink" x="0px" y="0px"
	 width="14.893px" height="11.385px" viewBox="0 8.615 14.893 11.385" enable-background="new 0 8.615 14.893 11.385"
	 xml:space="preserve">
<path fill="none" stroke="#FFF" stroke-miterlimit="10" d="M13.52,11.047h-3.424l-0.102-0.798c0-0.455-0.371-0.826-0.828-0.826
	H5.64c-0.457,0-0.827,0.371-0.827,0.826l-0.102,0.798H1.315c-0.304,0-0.551,0.234-0.551,0.539v7.105
	c0,0.305,0.246,0.566,0.551,0.566H13.52c0.305,0,0.551-0.262,0.551-0.566v-7.105C14.07,11.281,13.824,11.047,13.52,11.047z
	 M7.419,18.529c-1.872,0-3.389-1.518-3.389-3.389s1.517-3.387,3.389-3.387c1.871,0,3.389,1.516,3.389,3.387
	S9.291,18.529,7.419,18.529z"/>
</svg>