<?xml version="1.0" encoding="utf-8"?>
<!-- Generator: Adobe Illustrator 16.0.4, SVG Export Plug-In . SVG Version: 6.00 Build 0)  -->
<!DOCTYPE svg PUBLIC "-//W3C//DTD SVG 1.1//EN" "http://www.w3.org/Graphics/SVG/1.1/DTD/svg11.dtd">
<svg version="1.1" id="Layer_1" xmlns:sketch="http://www.bohemiancoding.com/sketch/ns"
	 xmlns="http://www.w3.org/2000/svg" xmlns:xlink="http://www.w3.org/1999/xlink" x="0px" y="0px" width="32px" height="62px"
	 viewBox="0 0 32 62" enable-background="new 0 0 32 62" xml:space="preserve">
<title>icon-4</title>
<desc>Created with Sketch.</desc>
<g>
	<path fill="#505977" d="M26.23,2.048H5.803L0,11.629L16.017,30l16.017-18.371L26.23,2.048z M22.118,12.323L16.02,27.172
		L9.972,12.323H22.118L22.118,12.323z M10.536,10.742l5.481-6.786l5.481,6.786H10.536z M17.559,3.629h7.416l-2.093,6.591
		L17.559,3.629z M9.234,10.12L7.486,3.629h6.99L9.234,10.12z M8.542,12.323l5.31,13.039L2.484,12.323H8.542z M23.551,12.323h5.999
		L18.209,25.331L23.551,12.323z M24.088,10.742l2-6.297l3.813,6.297H24.088z M6.233,3.973l1.822,6.771H2.132L6.233,3.973z"/>
</g>
<g>
	<path fill="#FFFFFF" d="M26.23,34.024H5.803L0,43.605l16.017,18.371l16.017-18.371L26.23,34.024z M22.118,44.3L16.02,59.148
		L9.972,44.3H22.118L22.118,44.3z M10.536,42.719l5.481-6.786l5.481,6.786H10.536z M17.559,35.605h7.416l-2.093,6.592L17.559,35.605
		z M9.234,42.096l-1.748-6.49h6.99L9.234,42.096z M8.542,44.3l5.31,13.039L2.484,44.3H8.542z M23.551,44.3h5.999L18.209,57.308
		L23.551,44.3z M24.088,42.719l2-6.297l3.813,6.297H24.088z M6.233,35.949l1.822,6.771H2.132L6.233,35.949z"/>
</g>
</svg>
