<?xml version="1.0" encoding="utf-8"?>
<!-- Generator: Adobe Illustrator 16.0.4, SVG Export Plug-In . SVG Version: 6.00 Build 0)  -->
<!DOCTYPE svg PUBLIC "-//W3C//DTD SVG 1.1//EN" "http://www.w3.org/Graphics/SVG/1.1/DTD/svg11.dtd">
<svg version="1.1" id="Layer_1" xmlns:sketch="http://www.bohemiancoding.com/sketch/ns"
	 xmlns="http://www.w3.org/2000/svg" xmlns:xlink="http://www.w3.org/1999/xlink" x="0px" y="0px" width="32px" height="64px"
	 viewBox="0 0 32 64" enable-background="new 0 0 32 64" xml:space="preserve">
<title>icon-1</title>
<desc>Created with Sketch.</desc>
<g>
	<g id="Layer_5_10_">
		<g>
			<g>
				<path fill="#505977" d="M16.855,16.497c0,0.239-0.164,0.435-0.365,0.435h-8.11c-0.201,0-0.366-0.196-0.366-0.435v-0.896
					c0-0.24,0.165-0.436,0.366-0.436h8.11c0.201,0,0.365,0.196,0.365,0.436V16.497z"/>
				<path fill="#505977" d="M28.305,16.497c0,0.239-0.164,0.435-0.365,0.435h-8.107c-0.203,0-0.367-0.196-0.367-0.435v-0.896
					c0-0.24,0.164-0.436,0.367-0.436h8.107c0.201,0,0.365,0.196,0.365,0.436V16.497z"/>
				<path fill="#505977" d="M16.855,21.303c0,0.239-0.164,0.435-0.365,0.435h-8.11c-0.201,0-0.366-0.196-0.366-0.435v-0.896
					c0-0.239,0.165-0.436,0.366-0.436h8.11c0.201,0,0.365,0.197,0.365,0.436V21.303z"/>
				<path fill="#505977" d="M28.305,21.303c0,0.239-0.164,0.435-0.365,0.435h-8.107c-0.203,0-0.367-0.196-0.367-0.435v-0.896
					c0-0.239,0.164-0.436,0.367-0.436h8.107c0.201,0,0.365,0.197,0.365,0.436V21.303z"/>
				<path fill="#505977" d="M16.855,26.108c0,0.239-0.164,0.436-0.365,0.436h-8.11c-0.201,0-0.366-0.196-0.366-0.436v-0.895
					c0-0.24,0.165-0.437,0.366-0.437h8.11c0.201,0,0.365,0.196,0.365,0.437V26.108z"/>
				<path fill="#505977" d="M28.305,26.108c0,0.239-0.164,0.436-0.365,0.436h-8.107c-0.203,0-0.367-0.196-0.367-0.436v-0.895
					c0-0.24,0.164-0.437,0.367-0.437h8.107c0.201,0,0.365,0.196,0.365,0.437V26.108z"/>
			</g>
			<path fill="#505977" d="M0.196,7.977L4.437,30.11c0.087,0.486,0.238,0.821,0.448,1.004C5.213,31.65,5.742,32,6.34,32h23.705
				c0.99,0,1.797-0.959,1.797-2.137V2.136C31.842,0.958,31.035,0,30.045,0H6.34C5.349,0,4.543,0.958,4.543,2.136
				c0,0-0.263,14.129,0,18.878c0.039,0.692-0.106,1.007-0.115,0.967c-0.757-3.373-2.93-14.333-2.93-14.333
				C1.478,7.536,1.489,7.441,1.53,7.381s0.116-0.093,0.213-0.093h1.035c0,0,0.389,0.005,0.389-0.368c0-0.212,0-0.635,0-0.847
				c0-0.377-0.389-0.368-0.389-0.368H1.743c-0.499,0-0.953,0.248-1.248,0.68C0.202,6.817,0.093,7.398,0.196,7.977z M5.874,2.136
				c0-0.301,0.213-0.554,0.466-0.554h23.705c0.254,0,0.467,0.253,0.467,0.554v27.727c0,0.305-0.209,0.555-0.467,0.555H6.34
				c-0.257,0-0.466-0.25-0.466-0.555V2.136z"/>
			<path fill="#505977" d="M28.178,4.097H8.143c-0.18,0-0.328,0.176-0.328,0.39v7.486c0,0.215,0.147,0.39,0.328,0.39h20.035
				c0.18,0,0.326-0.175,0.326-0.39V4.487C28.506,4.273,28.357,4.097,28.178,4.097z M14.241,10.406c0,0.197-0.135,0.357-0.301,0.357
				h-0.128c-0.146,0-0.314-0.111-0.393-0.258l-1.074-2.041c-0.059-0.111-0.154-0.295-0.21-0.408
				c-0.014-0.027-0.22-0.423-0.429-0.884c-0.019-0.05-0.039-0.029-0.039,0.005c0.009,0.351,0.022,0.91,0.022,1.408v1.821
				c0,0.198-0.134,0.357-0.3,0.357h-0.092c-0.166,0-0.301-0.16-0.301-0.357V6.062c0-0.197,0.135-0.358,0.301-0.358h0.17
				c0.146,0,0.315,0.11,0.393,0.257l1.085,2.037c0.059,0.111,0.154,0.296,0.211,0.409c0.012,0.024,0.209,0.419,0.394,0.824
				c0.01,0.024,0.036,0.05,0.033-0.005c-0.015-0.352-0.037-0.886-0.037-1.385V6.062c0-0.197,0.135-0.358,0.301-0.358h0.092
				c0.166,0,0.301,0.161,0.301,0.358L14.241,10.406L14.241,10.406z M17.434,10.406c0,0.197-0.135,0.357-0.301,0.357h-1.878
				c-0.166,0-0.3-0.16-0.3-0.357V6.062c0-0.197,0.135-0.358,0.3-0.358h1.788c0.166,0,0.303,0.161,0.303,0.358v0.045
				c0,0.197-0.137,0.357-0.303,0.357h-1.264c-0.055,0-0.1,0.054-0.1,0.12V7.63c0,0.066,0.045,0.12,0.1,0.12h1.174
				c0.166,0,0.303,0.16,0.303,0.357v0.039c0,0.197-0.137,0.357-0.303,0.357h-1.174c-0.055,0-0.1,0.054-0.1,0.119v1.261
				c0,0.066,0.045,0.12,0.1,0.12h1.354c0.168,0,0.301,0.16,0.301,0.358V10.406L17.434,10.406L17.434,10.406z M22.693,6.085
				l-1.039,4.362c-0.041,0.177-0.195,0.316-0.354,0.316h-0.145c-0.156,0-0.309-0.142-0.346-0.323l-0.416-2.046
				c-0.027-0.128-0.068-0.337-0.094-0.465c-0.006-0.023-0.074-0.386-0.137-0.77c-0.051,0.269-0.129,0.655-0.213,1.009l-0.525,2.279
				c-0.041,0.178-0.193,0.317-0.352,0.317H18.93c-0.156,0-0.311-0.141-0.35-0.32l-0.93-4.359c-0.021-0.097-0.004-0.194,0.045-0.266
				c0.045-0.072,0.119-0.114,0.205-0.114h0.15c0.158,0,0.309,0.143,0.346,0.324l0.391,1.975c0.023,0.128,0.062,0.337,0.09,0.466
				c0,0.007,0.059,0.301,0.137,0.742c0.029,0.131,0.057,0.049,0.068-0.022c0.057-0.285,0.129-0.651,0.197-0.964l0.492-2.202
				c0.037-0.179,0.191-0.319,0.348-0.319h0.145c0.158,0,0.312,0.142,0.348,0.323l0.398,1.983c0.025,0.127,0.066,0.336,0.094,0.465
				c0.004,0.023,0.07,0.37,0.137,0.751c0.006,0.04,0.018,0.109,0.037,0.029c0.057-0.299,0.129-0.663,0.205-1.029l0.482-2.203
				c0.041-0.179,0.193-0.319,0.352-0.319h0.133c0.084,0,0.158,0.042,0.207,0.114C22.703,5.892,22.717,5.989,22.693,6.085z
				 M23.988,10.835c-0.406,0-0.867-0.218-0.887-0.227c-0.148-0.072-0.232-0.279-0.188-0.462c0,0,0.064-0.286,0.096-0.377
				c0.018-0.048,0.055-0.039,0.055-0.039l0.072,0.054c0.254,0.187,0.586,0.297,0.887,0.297c0.461,0,0.748-0.27,0.748-0.703
				c0-0.334-0.115-0.58-0.699-0.848c-0.773-0.326-1.135-0.796-1.135-1.479c0-0.84,0.578-1.428,1.41-1.428
				c0.498,0,0.807,0.157,0.945,0.251l0.025,0.017c0,0,0.045,0.04,0.029,0.091c-0.021,0.079-0.09,0.316-0.09,0.316
				c-0.039,0.138-0.141,0.227-0.26,0.227c-0.041,0-0.084-0.011-0.123-0.034c-0.002,0-0.211-0.114-0.545-0.114
				c-0.492,0-0.664,0.325-0.664,0.603c0,0.362,0.18,0.561,0.74,0.819c0.771,0.353,1.098,0.81,1.098,1.527
				C25.506,10.023,25.109,10.835,23.988,10.835z"/>
		</g>
	</g>
</g>
<g>
	<g id="Layer_5_1_">
		<g>
			<g>
				<path fill="#FFFFFF" d="M16.856,48.497c0,0.239-0.165,0.435-0.365,0.435h-8.11c-0.201,0-0.366-0.195-0.366-0.435v-0.896
					c0-0.24,0.165-0.437,0.366-0.437h8.11c0.2,0,0.365,0.194,0.365,0.437V48.497z"/>
				<path fill="#FFFFFF" d="M28.306,48.497c0,0.239-0.164,0.435-0.365,0.435h-8.108c-0.202,0-0.366-0.195-0.366-0.435v-0.896
					c0-0.24,0.164-0.437,0.366-0.437h8.108c0.201,0,0.365,0.194,0.365,0.437V48.497z"/>
				<path fill="#FFFFFF" d="M16.856,53.303c0,0.239-0.165,0.437-0.365,0.437h-8.11c-0.201,0-0.366-0.196-0.366-0.437v-0.896
					c0-0.239,0.165-0.438,0.366-0.438h8.11c0.2,0,0.365,0.197,0.365,0.438V53.303z"/>
				<path fill="#FFFFFF" d="M28.306,53.303c0,0.239-0.164,0.437-0.365,0.437h-8.108c-0.202,0-0.366-0.196-0.366-0.437v-0.896
					c0-0.239,0.164-0.438,0.366-0.438h8.108c0.201,0,0.365,0.197,0.365,0.438V53.303z"/>
				<path fill="#FFFFFF" d="M16.856,58.107c0,0.24-0.165,0.437-0.365,0.437h-8.11c-0.201,0-0.366-0.196-0.366-0.437v-0.896
					c0-0.239,0.165-0.437,0.366-0.437h8.11c0.2,0,0.365,0.195,0.365,0.437V58.107z"/>
				<path fill="#FFFFFF" d="M28.306,58.107c0,0.24-0.164,0.437-0.365,0.437h-8.108c-0.202,0-0.366-0.196-0.366-0.437v-0.896
					c0-0.239,0.164-0.437,0.366-0.437h8.108c0.201,0,0.365,0.195,0.365,0.437V58.107z"/>
			</g>
			<path fill="#FFFFFF" d="M0.196,39.977l4.241,22.133c0.087,0.486,0.238,0.822,0.448,1.006C5.213,63.65,5.742,64,6.34,64h23.706
				c0.989,0,1.797-0.959,1.797-2.137V34.137c0-1.178-0.808-2.137-1.797-2.137H6.34c-0.991,0-1.797,0.959-1.797,2.137
				c0,0-0.263,14.129,0,18.879c0.039,0.691-0.106,1.006-0.115,0.967c-0.757-3.373-2.93-14.334-2.93-14.334
				c-0.02-0.112-0.009-0.207,0.032-0.268s0.116-0.093,0.213-0.093h1.035c0,0,0.389,0.005,0.389-0.368c0-0.211,0-0.635,0-0.847
				c0-0.378-0.389-0.368-0.389-0.368H1.743c-0.499,0-0.953,0.248-1.248,0.681C0.202,38.816,0.093,39.398,0.196,39.977z
				 M5.875,34.137c0-0.301,0.213-0.555,0.466-0.555h23.706c0.254,0,0.467,0.254,0.467,0.555v27.728c0,0.305-0.209,0.555-0.467,0.555
				H6.34c-0.257,0-0.466-0.25-0.466-0.555V34.137z"/>
			<path fill="#FFFFFF" d="M28.179,36.098H8.143c-0.18,0-0.328,0.176-0.328,0.391v7.486c0,0.215,0.147,0.39,0.328,0.39h20.036
				c0.18,0,0.326-0.175,0.326-0.39v-7.486C28.507,36.273,28.358,36.098,28.179,36.098z M14.241,42.406
				c0,0.197-0.135,0.357-0.301,0.357h-0.128c-0.146,0-0.314-0.111-0.393-0.259l-1.074-2.042c-0.059-0.111-0.154-0.295-0.21-0.406
				c-0.014-0.027-0.22-0.425-0.429-0.886c-0.019-0.051-0.039-0.028-0.039,0.005c0.009,0.352,0.022,0.91,0.022,1.408v1.821
				c0,0.196-0.134,0.356-0.3,0.356h-0.092c-0.166,0-0.301-0.16-0.301-0.356v-4.345c0-0.196,0.135-0.356,0.301-0.356h0.17
				c0.146,0,0.315,0.108,0.393,0.256l1.085,2.037c0.059,0.11,0.154,0.296,0.211,0.409c0.012,0.023,0.209,0.419,0.394,0.824
				c0.01,0.023,0.036,0.05,0.033-0.006c-0.015-0.353-0.037-0.887-0.037-1.386v-1.778c0-0.196,0.135-0.356,0.301-0.356h0.092
				c0.166,0,0.301,0.16,0.301,0.356L14.241,42.406L14.241,42.406z M17.435,42.406c0,0.197-0.135,0.357-0.301,0.357h-1.878
				c-0.166,0-0.3-0.16-0.3-0.357v-4.344c0-0.197,0.135-0.357,0.3-0.357h1.789c0.166,0,0.303,0.16,0.303,0.357v0.045
				c0,0.197-0.137,0.356-0.303,0.356h-1.265c-0.055,0-0.1,0.054-0.1,0.119v1.047c0,0.065,0.045,0.119,0.1,0.119h1.175
				c0.165,0,0.303,0.16,0.303,0.356v0.039c0,0.197-0.138,0.357-0.303,0.357h-1.175c-0.055,0-0.1,0.055-0.1,0.119v1.261
				c0,0.066,0.045,0.12,0.1,0.12h1.354c0.168,0,0.301,0.16,0.301,0.357V42.406L17.435,42.406L17.435,42.406z M22.694,38.086
				l-1.039,4.361c-0.042,0.178-0.195,0.316-0.354,0.316h-0.146c-0.155,0-0.308-0.143-0.345-0.322l-0.416-2.047
				c-0.027-0.129-0.068-0.338-0.094-0.467c-0.006-0.022-0.074-0.386-0.138-0.771c-0.051,0.27-0.128,0.655-0.213,1.01l-0.524,2.278
				c-0.041,0.179-0.193,0.316-0.352,0.316h-0.145c-0.156,0-0.311-0.141-0.35-0.32l-0.93-4.358c-0.021-0.097-0.005-0.192,0.044-0.267
				c0.046-0.071,0.12-0.112,0.205-0.112h0.151c0.158,0,0.309,0.144,0.345,0.323l0.391,1.976c0.024,0.127,0.063,0.337,0.091,0.465
				c0,0.009,0.059,0.302,0.137,0.742c0.029,0.132,0.056,0.05,0.068-0.021c0.057-0.285,0.129-0.65,0.197-0.965l0.491-2.201
				c0.038-0.18,0.192-0.318,0.348-0.318h0.146c0.158,0,0.312,0.141,0.347,0.322l0.399,1.982c0.025,0.129,0.066,0.338,0.093,0.465
				c0.005,0.023,0.071,0.37,0.137,0.752c0.007,0.039,0.019,0.108,0.037,0.028c0.058-0.3,0.129-0.663,0.205-1.028l0.483-2.203
				c0.041-0.18,0.192-0.318,0.351-0.318h0.134c0.084,0,0.158,0.041,0.206,0.113C22.704,37.893,22.718,37.989,22.694,38.086z
				 M23.988,42.836c-0.406,0-0.867-0.219-0.886-0.229c-0.149-0.07-0.233-0.278-0.188-0.461c0,0,0.064-0.287,0.096-0.377
				c0.017-0.05,0.054-0.039,0.054-0.039l0.073,0.055c0.254,0.186,0.586,0.297,0.887,0.297c0.461,0,0.748-0.27,0.748-0.703
				c0-0.334-0.115-0.58-0.699-0.848c-0.773-0.326-1.136-0.797-1.136-1.479c0-0.841,0.579-1.428,1.411-1.428
				c0.498,0,0.807,0.157,0.945,0.251l0.024,0.019c0,0,0.046,0.039,0.03,0.09c-0.022,0.078-0.09,0.315-0.09,0.315
				c-0.039,0.14-0.142,0.228-0.261,0.228c-0.041,0-0.083-0.012-0.122-0.034c-0.002-0.001-0.211-0.114-0.546-0.114
				c-0.491,0-0.663,0.325-0.663,0.604c0,0.361,0.18,0.562,0.74,0.818c0.771,0.354,1.098,0.811,1.098,1.527
				C25.507,42.023,25.11,42.836,23.988,42.836z"/>
		</g>
	</g>
</g>
</svg>
