<?xml version="1.0" encoding="utf-8"?>
<!-- Generator: Adobe Illustrator 16.0.4, SVG Export Plug-In . SVG Version: 6.00 Build 0)  -->
<!DOCTYPE svg PUBLIC "-//W3C//DTD SVG 1.1//EN" "http://www.w3.org/Graphics/SVG/1.1/DTD/svg11.dtd">
<svg version="1.1" id="Layer_1" xmlns:sketch="http://www.bohemiancoding.com/sketch/ns"
	 xmlns="http://www.w3.org/2000/svg" xmlns:xlink="http://www.w3.org/1999/xlink" x="0px" y="0px" width="32px" height="64px"
	 viewBox="0 0 32 64" enable-background="new 0 0 32 64" xml:space="preserve">
<title>icon-5</title>
<desc>Created with Sketch.</desc>
<g>
	<g>
		<path fill="#505977" d="M16,31.707c8.756,0,15.854-7.098,15.854-15.854S24.756,0,16,0S0.146,7.098,0.146,15.854
			S7.244,31.707,16,31.707z M16.408,29.404c-0.171,0.298-0.321,0.548-0.417,0.706c-0.031,0.051-0.075,0.093-0.127,0.122
			l-0.179,0.098c-0.05,0.028-0.107,0.042-0.164,0.042c-0.002,0-0.005,0-0.007,0c-0.31-0.007-0.528-0.015-0.65-0.025
			c-1.553-0.13-3.042-0.488-4.423-1.065c-0.163-0.067-0.247-0.247-0.194-0.415l0.121-0.389c0.052-0.168,0.224-0.268,0.396-0.231
			c1.21,0.258,2.479,0.389,3.773,0.389c0.445,0,0.903-0.016,1.362-0.046c0.125-0.008,0.245,0.054,0.312,0.16l0.19,0.305
			C16.469,29.161,16.471,29.295,16.408,29.404z M23.738,25.788c-0.267,0.637-0.753,1.601-1.021,2.118
			c-0.031,0.062-0.082,0.113-0.144,0.146c-0.639,0.334-2.326,1.006-4.14,1.384c-0.023,0.005-0.047,0.007-0.069,0.007
			c-0.106,0-0.209-0.05-0.274-0.139c-0.079-0.106-0.088-0.25-0.023-0.366c0.129-0.233,0.237-0.446,0.333-0.65
			c1.513-3.246,1.665-6.511,0.451-9.705c-0.384-1.013-0.956-1.96-1.699-2.816c-0.085-0.098-0.106-0.235-0.057-0.354
			c0.574-1.373,1.604-2.753,2.899-3.885c0.069-0.061,0.16-0.09,0.251-0.083c0.092,0.007,0.176,0.051,0.234,0.122
			c0.273,0.328,0.562,0.678,0.826,1.036c1.564,2.122,2.594,4.391,3.061,6.744C24.809,21.568,24.597,23.735,23.738,25.788z
			 M28.724,21.504c-0.323,1.031-0.685,1.584-1.241,2.37c-0.336,0.473-0.681,0.902-1.057,1.312c-0.066,0.072-0.158,0.11-0.251,0.11
			c-0.056,0-0.112-0.014-0.163-0.042c-0.138-0.075-0.206-0.233-0.166-0.385c0.084-0.323,0.157-0.653,0.218-0.982
			c0.554-3.052,0.015-6.178-1.603-9.291c-0.002-0.004-0.005-0.008-0.006-0.012c-0.554-1.164-1.622-2.767-2.436-3.839
			c-0.063-0.083-0.085-0.19-0.059-0.291c0.026-0.101,0.097-0.184,0.192-0.226c1.378-0.607,2.49-0.861,3.181-0.966
			c0.121-0.019,0.242,0.03,0.318,0.126c1.405,1.788,2.381,3.838,2.982,6.269C29.213,17.996,29.242,19.854,28.724,21.504z
			 M27.079,9.084l0.167-0.319c0.059-0.111,0.174-0.181,0.3-0.182c0.271-0.002,0.55,0,0.819,0.004
			c0.06,0.001,0.118,0.018,0.169,0.049l0.175,0.105c0.052,0.031,0.094,0.074,0.123,0.126c0.103,0.185,0.238,0.434,0.306,0.574
			c0.67,1.406,1.109,2.872,1.308,4.355c0.021,0.155-0.043,0.521-0.47,0.617c-0.427,0.095-0.551-0.262-0.588-0.375
			c-0.518-1.576-1.288-3.125-2.289-4.605C27.027,9.329,27.021,9.195,27.079,9.084z M23.241,3.923c0.07-0.003,0.14,0.015,0.198,0.052
			c0.609,0.385,2.034,1.512,3.268,2.894c0.089,0.099,0.111,0.241,0.058,0.363c-0.053,0.122-0.173,0.202-0.306,0.204
			c-0.265,0.004-0.504,0.017-0.73,0.036c-3.566,0.312-6.471,1.812-8.632,4.458c-0.685,0.839-1.22,1.808-1.59,2.879
			c-0.042,0.122-0.15,0.21-0.279,0.226c-0.366,0.047-0.75,0.071-1.14,0.071c-1.181,0-2.451-0.222-3.674-0.641
			c-0.087-0.03-0.158-0.093-0.197-0.176c-0.039-0.083-0.043-0.178-0.012-0.264c0.147-0.4,0.306-0.825,0.485-1.233
			c1.057-2.415,2.507-4.441,4.312-6.021c1.704-1.492,3.688-2.392,5.895-2.673C21.581,4.011,22.66,3.951,23.241,3.923z M9.675,4.919
			c1.736-1.669,3.331-2.623,5.019-2.999c0.542-0.121,1.027-0.177,1.528-0.177c0.38,0,0.743,0.031,1.146,0.068
			c0.582,0.055,1.13,0.14,1.677,0.262c0.152,0.034,0.262,0.168,0.266,0.325c0.004,0.156-0.1,0.295-0.251,0.336
			c-2.302,0.624-5.596,2.229-8.218,6.331c-0.002,0.003-0.004,0.007-0.006,0.01c-0.732,1.061-1.586,2.788-2.109,4.028
			C8.685,13.2,8.603,13.272,8.502,13.3c-0.03,0.008-0.06,0.012-0.09,0.012c-0.072,0-0.143-0.022-0.202-0.066
			c-1.215-0.891-1.99-1.727-2.425-2.272c-0.077-0.096-0.096-0.225-0.05-0.339C6.582,8.523,7.871,6.654,9.675,4.919z M3.646,8.311
			c0.001-0.06,0.018-0.118,0.048-0.169C3.804,7.96,3.952,7.717,4.039,7.59c0.884-1.284,1.934-2.397,3.119-3.31
			c0.139-0.107,0.337-0.091,0.457,0.038l0.277,0.298c0.12,0.129,0.121,0.328,0.004,0.459C6.791,6.311,5.833,7.752,5.051,9.36
			C4.996,9.473,4.884,9.546,4.758,9.551l-0.36,0.014c-0.005,0-0.009,0-0.014,0c-0.12,0-0.232-0.064-0.293-0.168
			C3.953,9.161,3.816,8.921,3.686,8.686C3.657,8.633,3.642,8.574,3.643,8.515L3.646,8.311z M2.097,15.3
			c0.032-0.72,0.302-2.516,0.89-4.273c0.042-0.126,0.154-0.216,0.286-0.23c0.133-0.015,0.261,0.05,0.329,0.165
			c0.136,0.229,0.265,0.43,0.394,0.616c2.041,2.942,4.785,4.718,8.155,5.28c1.055,0.176,2.188,0.158,3.289-0.05
			c0.127-0.023,0.257,0.026,0.335,0.13c0.896,1.188,1.569,2.773,1.895,4.462c0.018,0.09-0.003,0.184-0.055,0.259
			c-0.053,0.075-0.133,0.126-0.224,0.142c-0.42,0.07-0.867,0.144-1.311,0.191c-0.698,0.074-1.391,0.112-2.061,0.112h0
			c-1.854,0-3.639-0.291-5.307-0.867c-2.141-0.738-3.906-2.014-5.247-3.789c-0.417-0.552-1.003-1.458-1.316-1.949
			C2.112,15.439,2.093,15.371,2.097,15.3z M3.233,21.646c-0.24-0.528-0.437-1.043-0.602-1.574c-0.046-0.149,0.015-0.312,0.149-0.393
			c0.134-0.08,0.306-0.06,0.417,0.051c0.235,0.236,0.484,0.466,0.738,0.684c2.356,2.015,5.328,3.124,8.834,3.297
			c0.004,0.001,0.008,0.001,0.012,0.001c0.338,0.029,0.735,0.043,1.181,0.043c1.029,0,2.287-0.078,3.362-0.211
			c0.104-0.013,0.207,0.022,0.281,0.096c0.074,0.074,0.11,0.177,0.099,0.28c-0.17,1.496-0.512,2.584-0.768,3.232
			c-0.045,0.114-0.148,0.195-0.271,0.212c-0.689,0.096-1.392,0.145-2.089,0.145c-1.561,0-3.186-0.244-4.828-0.727
			c-2.312-0.679-3.93-1.59-5.095-2.868C3.926,23.113,3.631,22.523,3.233,21.646z"/>
	</g>
	<g>
	</g>
	<g>
	</g>
	<g>
	</g>
	<g>
	</g>
	<g>
	</g>
	<g>
	</g>
	<g>
	</g>
	<g>
	</g>
	<g>
	</g>
	<g>
	</g>
	<g>
	</g>
	<g>
	</g>
	<g>
	</g>
	<g>
	</g>
	<g>
	</g>
</g>
<g>
	<g>
		<path fill="#FFFFFF" d="M16,63.707c8.756,0,15.854-7.098,15.854-15.854S24.756,32,16,32S0.146,39.098,0.146,47.854
			S7.244,63.707,16,63.707z M16.408,61.404c-0.171,0.298-0.321,0.548-0.417,0.706c-0.031,0.051-0.075,0.093-0.127,0.122
			l-0.179,0.098c-0.05,0.028-0.107,0.042-0.164,0.042c-0.002,0-0.005,0-0.007,0c-0.31-0.007-0.528-0.015-0.65-0.025
			c-1.553-0.13-3.042-0.488-4.423-1.065c-0.163-0.067-0.247-0.247-0.194-0.415l0.121-0.389c0.052-0.168,0.224-0.268,0.396-0.231
			c1.21,0.258,2.479,0.389,3.773,0.389c0.445,0,0.903-0.016,1.362-0.046c0.125-0.008,0.245,0.054,0.312,0.16l0.19,0.305
			C16.469,61.161,16.471,61.295,16.408,61.404z M23.738,57.788c-0.267,0.637-0.753,1.601-1.021,2.118
			c-0.031,0.062-0.082,0.113-0.144,0.146c-0.639,0.334-2.326,1.006-4.14,1.384c-0.023,0.005-0.047,0.007-0.069,0.007
			c-0.106,0-0.209-0.05-0.274-0.139c-0.079-0.106-0.088-0.25-0.023-0.366c0.129-0.233,0.237-0.446,0.333-0.65
			c1.513-3.246,1.665-6.511,0.451-9.705c-0.384-1.013-0.956-1.96-1.699-2.816c-0.085-0.098-0.106-0.235-0.057-0.354
			c0.574-1.373,1.604-2.753,2.899-3.885c0.069-0.061,0.16-0.09,0.251-0.083c0.092,0.007,0.176,0.051,0.234,0.122
			c0.273,0.327,0.562,0.678,0.826,1.035c1.564,2.122,2.594,4.392,3.061,6.744C24.809,53.568,24.597,55.735,23.738,57.788z
			 M28.724,53.504c-0.323,1.031-0.685,1.584-1.241,2.37c-0.336,0.473-0.681,0.902-1.057,1.312c-0.066,0.072-0.158,0.11-0.251,0.11
			c-0.056,0-0.112-0.014-0.163-0.042c-0.138-0.075-0.206-0.233-0.166-0.385c0.084-0.323,0.157-0.653,0.218-0.982
			c0.554-3.052,0.015-6.178-1.603-9.291c-0.002-0.004-0.005-0.009-0.006-0.013c-0.554-1.164-1.622-2.767-2.436-3.838
			c-0.063-0.084-0.085-0.19-0.059-0.291c0.026-0.102,0.097-0.185,0.192-0.227c1.378-0.607,2.49-0.861,3.181-0.966
			c0.121-0.019,0.242,0.03,0.318,0.126c1.405,1.787,2.381,3.838,2.982,6.27C29.213,49.996,29.242,51.854,28.724,53.504z
			 M27.079,41.084l0.167-0.318c0.059-0.111,0.174-0.182,0.3-0.182c0.271-0.002,0.55-0.001,0.819,0.004
			c0.06,0.001,0.118,0.018,0.169,0.049l0.175,0.104c0.052,0.03,0.094,0.074,0.123,0.126c0.103,0.186,0.238,0.435,0.306,0.574
			c0.67,1.406,1.109,2.872,1.308,4.355c0.021,0.155-0.043,0.521-0.47,0.617c-0.427,0.095-0.551-0.263-0.588-0.375
			c-0.518-1.576-1.288-3.125-2.289-4.605C27.027,41.329,27.021,41.195,27.079,41.084z M23.241,35.924
			c0.07-0.004,0.14,0.014,0.198,0.052c0.609,0.386,2.034,1.512,3.268,2.894c0.089,0.1,0.111,0.241,0.058,0.363
			c-0.053,0.122-0.173,0.201-0.306,0.204c-0.265,0.005-0.504,0.017-0.73,0.036c-3.566,0.312-6.471,1.812-8.632,4.459
			c-0.685,0.838-1.22,1.807-1.59,2.879c-0.042,0.122-0.15,0.21-0.279,0.227c-0.366,0.047-0.75,0.07-1.14,0.07
			c-1.181,0-2.451-0.222-3.674-0.641c-0.087-0.029-0.158-0.094-0.197-0.176c-0.039-0.083-0.043-0.178-0.012-0.264
			c0.147-0.4,0.306-0.825,0.485-1.234c1.057-2.414,2.507-4.44,4.312-6.021c1.704-1.491,3.688-2.391,5.895-2.673
			C21.581,36.012,22.66,35.951,23.241,35.924z M9.675,36.919c1.736-1.669,3.331-2.622,5.019-2.999
			c0.542-0.121,1.027-0.177,1.528-0.177c0.38,0,0.743,0.031,1.146,0.068c0.582,0.055,1.13,0.14,1.677,0.263
			c0.152,0.033,0.262,0.168,0.266,0.324s-0.1,0.295-0.251,0.336c-2.302,0.624-5.596,2.229-8.218,6.331
			c-0.002,0.003-0.004,0.007-0.006,0.01c-0.732,1.062-1.586,2.788-2.109,4.028c-0.041,0.096-0.123,0.168-0.223,0.196
			c-0.03,0.009-0.06,0.013-0.09,0.013c-0.072,0-0.143-0.023-0.202-0.066c-1.215-0.891-1.99-1.727-2.425-2.272
			c-0.077-0.096-0.096-0.226-0.05-0.339C6.582,40.523,7.871,38.654,9.675,36.919z M3.646,40.311c0.001-0.06,0.018-0.118,0.048-0.17
			c0.109-0.181,0.257-0.424,0.344-0.551c0.884-1.283,1.934-2.396,3.119-3.31c0.139-0.107,0.337-0.091,0.457,0.038l0.277,0.298
			c0.12,0.129,0.121,0.327,0.004,0.459c-1.105,1.235-2.062,2.677-2.845,4.284c-0.055,0.113-0.167,0.188-0.293,0.191l-0.36,0.014
			c-0.005,0.001-0.009,0.001-0.014,0.001c-0.12,0-0.232-0.063-0.293-0.169c-0.138-0.235-0.275-0.475-0.406-0.711
			c-0.029-0.053-0.043-0.111-0.042-0.171L3.646,40.311z M2.097,47.301c0.032-0.721,0.302-2.517,0.89-4.273
			c0.042-0.126,0.154-0.216,0.286-0.23c0.133-0.015,0.261,0.051,0.329,0.164c0.136,0.229,0.265,0.43,0.394,0.616
			c2.041,2.942,4.785,4.718,8.155,5.28c1.055,0.176,2.188,0.158,3.289-0.05c0.127-0.023,0.257,0.026,0.335,0.13
			c0.896,1.188,1.569,2.773,1.895,4.462c0.018,0.09-0.003,0.184-0.055,0.259c-0.053,0.075-0.133,0.126-0.224,0.142
			c-0.42,0.07-0.867,0.144-1.311,0.191c-0.698,0.074-1.391,0.112-2.061,0.112h0c-1.854,0-3.639-0.291-5.307-0.867
			c-2.141-0.738-3.906-2.014-5.247-3.789c-0.417-0.552-1.003-1.458-1.316-1.949C2.112,47.439,2.093,47.371,2.097,47.301z
			 M3.233,53.646c-0.24-0.528-0.437-1.043-0.602-1.574c-0.046-0.149,0.015-0.312,0.149-0.393c0.134-0.08,0.306-0.06,0.417,0.051
			c0.235,0.236,0.484,0.466,0.738,0.684c2.356,2.015,5.328,3.124,8.834,3.297c0.004,0.001,0.008,0.001,0.012,0.001
			c0.338,0.029,0.735,0.043,1.181,0.043c1.029,0,2.287-0.078,3.362-0.211c0.104-0.013,0.207,0.022,0.281,0.096
			c0.074,0.074,0.11,0.177,0.099,0.28c-0.17,1.496-0.512,2.584-0.768,3.232c-0.045,0.114-0.148,0.195-0.271,0.212
			c-0.689,0.096-1.392,0.145-2.089,0.145c-1.561,0-3.186-0.244-4.828-0.727c-2.312-0.679-3.93-1.59-5.095-2.868
			C3.926,55.113,3.631,54.523,3.233,53.646z"/>
	</g>
	<g>
	</g>
	<g>
	</g>
	<g>
	</g>
	<g>
	</g>
	<g>
	</g>
	<g>
	</g>
	<g>
	</g>
	<g>
	</g>
	<g>
	</g>
	<g>
	</g>
	<g>
	</g>
	<g>
	</g>
	<g>
	</g>
	<g>
	</g>
	<g>
	</g>
</g>
</svg>
