<?xml version="1.0" encoding="utf-8"?>
<!-- Generator: Adobe Illustrator 16.0.4, SVG Export Plug-In . SVG Version: 6.00 Build 0)  -->
<!DOCTYPE svg PUBLIC "-//W3C//DTD SVG 1.1//EN" "http://www.w3.org/Graphics/SVG/1.1/DTD/svg11.dtd">
<svg version="1.1" id="Layer_1" xmlns:sketch="http://www.bohemiancoding.com/sketch/ns"
	 xmlns="http://www.w3.org/2000/svg" xmlns:xlink="http://www.w3.org/1999/xlink" x="0px" y="0px" width="32px" height="62px"
	 viewBox="0 0 32 62" enable-background="new 0 0 32 62" xml:space="preserve">
<title>icon-2</title>
<desc>Created with Sketch.</desc>
<g>
	<path fill="#505977" d="M29.275,9.427h-7.134V3.028c0-1.662-1.236-3.028-2.74-3.028H2.739C1.235,0,0,1.366,0,3.028v11.09
		c0,1.662,1.235,3.028,2.739,3.028H4.36l2.042,3.03c0.114,0.211,0.346,0.298,0.579,0.298c0.232,0,0.425-0.125,0.579-0.298
		l2.042-3.03H9.91v6.398c0,1.662,1.236,3.029,2.739,3.029h9.795l2.043,3.029c0.114,0.213,0.346,0.3,0.579,0.3
		c0.232,0,0.424-0.126,0.577-0.3l2.043-3.029h1.621c1.503,0,2.739-1.367,2.739-3.029V12.456
		C32.051,10.789,30.817,9.427,29.275,9.427z M9.22,15.567c-0.231,0-0.424,0.127-0.578,0.301L6.946,18.34l-1.697-2.472
		c-0.114-0.213-0.346-0.301-0.579-0.301H2.664c-0.732,0-1.311-0.64-1.311-1.449V3.028c0-0.809,0.579-1.449,1.311-1.449h16.662
		c0.733,0,1.311,0.64,1.311,1.449v7.208v3.881c0,0.809-0.577,1.449-1.311,1.449h-8.72H9.22L9.22,15.567z M30.625,23.544
		c0,0.811-0.577,1.45-1.311,1.45h-2.007c-0.231,0-0.425,0.126-0.579,0.298l-1.695,2.472l-1.696-2.472
		c-0.114-0.213-0.346-0.298-0.579-0.298H12.652c-0.732,0-1.311-0.64-1.311-1.45v-6.398h8.06c0.54,0,1.042-0.17,1.464-0.47h5.4
		c0.387,0,0.692-0.339,0.692-0.765c0-0.427-0.306-0.767-0.692-0.767h-4.243c0.115-0.301,0.154-0.641,0.154-1.023V11.05h7.134
		c0.733,0,1.312,0.64,1.312,1.448v11.046H30.625z M26.922,20.303c0,0.425-0.308,0.765-0.693,0.765H15.738
		c-0.386,0-0.693-0.339-0.693-0.765c0-0.427,0.307-0.766,0.693-0.766h10.491C26.611,19.532,26.922,19.876,26.922,20.303z
		 M16.238,11.642H5.785c-0.385,0-0.692-0.34-0.692-0.766s0.307-0.767,0.692-0.767h10.453c0.386,0,0.692,0.34,0.692,0.767
		C16.969,11.302,16.624,11.642,16.238,11.642z M5.093,6.44c0-0.427,0.307-0.766,0.692-0.766h6.285c0.386,0,0.693,0.339,0.693,0.766
		c0,0.427-0.307,0.767-0.693,0.767H5.785C5.4,7.207,5.093,6.868,5.093,6.44z"/>
</g>
<g>
	<path fill="#FFFFFF" d="M29.252,41.476h-7.134v-6.398c0-1.662-1.236-3.028-2.74-3.028H2.715c-1.503,0-2.739,1.366-2.739,3.028
		v11.09c0,1.662,1.235,3.028,2.739,3.028h1.622l2.042,3.03c0.114,0.212,0.346,0.298,0.579,0.298c0.232,0,0.425-0.125,0.579-0.298
		l2.042-3.03h0.307v6.398c0,1.662,1.236,3.028,2.739,3.028h9.795l2.043,3.028c0.114,0.214,0.346,0.301,0.579,0.301
		c0.232,0,0.424-0.127,0.577-0.301l2.043-3.028h1.621c1.503,0,2.739-1.366,2.739-3.028v-11.09
		C32.027,42.838,30.794,41.476,29.252,41.476z M9.197,47.615c-0.231,0-0.424,0.128-0.578,0.301l-1.696,2.473l-1.697-2.473
		c-0.114-0.213-0.346-0.301-0.579-0.301H2.641c-0.732,0-1.311-0.639-1.311-1.448v-11.09c0-0.81,0.579-1.449,1.311-1.449h16.662
		c0.733,0,1.311,0.64,1.311,1.449v7.208v3.882c0,0.81-0.577,1.448-1.311,1.448h-8.72H9.197L9.197,47.615z M30.602,55.594
		c0,0.811-0.577,1.449-1.311,1.449h-2.007c-0.231,0-0.425,0.127-0.579,0.299l-1.695,2.473l-1.696-2.473
		c-0.114-0.213-0.346-0.299-0.579-0.299H12.629c-0.732,0-1.311-0.639-1.311-1.449v-6.398h8.06c0.54,0,1.042-0.17,1.464-0.471h5.4
		c0.387,0,0.692-0.339,0.692-0.764c0-0.428-0.306-0.768-0.692-0.768h-4.243c0.115-0.301,0.154-0.641,0.154-1.022v-3.072h7.134
		c0.733,0,1.312,0.64,1.312,1.448v11.047H30.602z M26.898,52.352c0,0.426-0.308,0.766-0.693,0.766H15.714
		c-0.386,0-0.693-0.34-0.693-0.766c0-0.427,0.307-0.766,0.693-0.766h10.491C26.588,51.581,26.898,51.925,26.898,52.352z
		 M16.215,43.691H5.762c-0.385,0-0.692-0.34-0.692-0.767s0.307-0.767,0.692-0.767h10.453c0.386,0,0.692,0.34,0.692,0.767
		C16.945,43.352,16.601,43.691,16.215,43.691z M5.069,38.489c0-0.427,0.307-0.767,0.692-0.767h6.285c0.386,0,0.693,0.34,0.693,0.767
		s-0.307,0.767-0.693,0.767H5.762C5.376,39.256,5.069,38.916,5.069,38.489z"/>
</g>
</svg>
