<?xml version="1.0" encoding="utf-8"?>
<!-- Generator: Adobe Illustrator 16.0.4, SVG Export Plug-In . SVG Version: 6.00 Build 0)  -->
<!DOCTYPE svg PUBLIC "-//W3C//DTD SVG 1.1//EN" "http://www.w3.org/Graphics/SVG/1.1/DTD/svg11.dtd">
<svg version="1.1" id="Layer_1" xmlns:sketch="http://www.bohemiancoding.com/sketch/ns"
	 xmlns="http://www.w3.org/2000/svg" xmlns:xlink="http://www.w3.org/1999/xlink" x="0px" y="0px" width="32px" height="60px"
	 viewBox="0 0 32 60" enable-background="new 0 0 32 60" xml:space="preserve">
<title>icon-3</title>
<desc>Created with Sketch.</desc>
<g>
	<g>
		<path fill="#FFFFFF" d="M16.281,36.024c0-0.298-0.252-0.54-0.563-0.54c-3.247,0-5.89,2.539-5.89,5.661
			c0,0.298,0.251,0.54,0.562,0.54c0.311,0,0.562-0.242,0.562-0.54c0-2.525,2.138-4.58,4.766-4.58
			C16.029,36.565,16.281,36.324,16.281,36.024z"/>
		<path fill="#FFFFFF" d="M7.464,41.146c0,1.855,0.624,3.609,1.805,5.073c0.006,0.007,0.012,0.015,0.018,0.021
			c2.463,3.285,1.851,4.849,1.851,4.851c-0.132,0.27-0.01,0.592,0.271,0.72c0.077,0.033,0.158,0.051,0.238,0.051
			c0.211,0,0.414-0.116,0.51-0.312c0.102-0.207,0.906-2.143-1.986-5.98c-0.013-0.017-0.026-0.032-0.041-0.049
			c-1.007-1.265-1.539-2.775-1.539-4.375c0-3.973,3.363-7.205,7.497-7.205c4.133,0,7.497,3.232,7.497,7.205
			c0,1.603-0.535,3.121-1.559,4.399c-2.895,3.841-2.058,5.799-1.952,6.01c0.132,0.264,0.456,0.373,0.734,0.253
			c0.278-0.119,0.404-0.438,0.286-0.708c-0.007-0.016-0.651-1.609,1.833-4.907c1.166-1.458,1.782-3.203,1.782-5.046
			c0-4.57-3.868-8.288-8.622-8.288C11.332,32.857,7.464,36.576,7.464,41.146z"/>
		<path fill="#FFFFFF" d="M21.108,53.942v-0.46c0-0.732-0.621-1.328-1.383-1.328h-7.581c-0.763,0-1.383,0.596-1.383,1.328v0.46
			c0,0.732,0.62,1.328,1.383,1.328h7.582C20.488,55.271,21.108,54.675,21.108,53.942z M11.887,53.942v-0.46
			c0-0.136,0.115-0.246,0.258-0.246h7.582c0.142,0,0.257,0.11,0.257,0.246v0.46c0,0.137-0.115,0.247-0.257,0.247h-7.582
			C12.002,54.189,11.887,54.079,11.887,53.942z"/>
		<path fill="#FFFFFF" d="M13.055,56.093c-0.311,0-0.562,0.242-0.562,0.541v1.429c0,0.211,0.129,0.403,0.329,0.491l3.032,1.329
			c0.074,0.033,0.153,0.049,0.233,0.049c0.082,0,0.164-0.017,0.24-0.052l3.04-1.379c0.197-0.089,0.322-0.279,0.322-0.488v-1.378
			c0-0.299-0.251-0.541-0.562-0.541s-0.562,0.242-0.562,0.541v1.036l-2.481,1.125l-2.466-1.081v-1.08
			C13.617,56.334,13.366,56.093,13.055,56.093z"/>
		<path fill="#FFFFFF" d="M29.193,50.916c0.185-0.24,0.131-0.579-0.118-0.757l-3.817-2.704c-0.25-0.177-0.602-0.127-0.786,0.113
			c-0.185,0.241-0.131,0.58,0.119,0.757l3.816,2.704c0.101,0.071,0.218,0.106,0.333,0.106C28.913,51.136,29.083,51.06,29.193,50.916
			z"/>
		<path fill="#FFFFFF" d="M6.831,35.742c0.101,0.071,0.218,0.104,0.333,0.104c0.173,0,0.343-0.075,0.454-0.219
			c0.185-0.24,0.131-0.579-0.119-0.757l-3.902-2.765c-0.25-0.179-0.603-0.126-0.787,0.113c-0.185,0.241-0.131,0.579,0.119,0.757
			L6.831,35.742z"/>
		<path fill="#FFFFFF" d="M7.008,47.27l-4.078,2.89c-0.25,0.178-0.304,0.517-0.119,0.757c0.11,0.144,0.281,0.22,0.453,0.22
			c0.116,0,0.233-0.034,0.334-0.105l4.079-2.891c0.25-0.178,0.303-0.517,0.118-0.756C7.609,47.143,7.258,47.092,7.008,47.27z"/>
		<path fill="#FFFFFF" d="M24.757,34.692c-0.25,0.178-0.303,0.517-0.118,0.756c0.109,0.145,0.28,0.221,0.453,0.221
			c0.116,0,0.232-0.035,0.334-0.105l3.65-2.587c0.25-0.177,0.303-0.516,0.118-0.756s-0.536-0.292-0.786-0.113L24.757,34.692z"/>
		<path fill="#FFFFFF" d="M31.405,41.028h-4.304c-0.311,0-0.562,0.242-0.562,0.54c0,0.299,0.252,0.541,0.562,0.541h4.304
			c0.312,0,0.562-0.242,0.562-0.541C31.968,41.271,31.717,41.028,31.405,41.028z"/>
		<path fill="#FFFFFF" d="M5.533,41.568c0-0.298-0.251-0.54-0.562-0.54H0.53c-0.311,0-0.562,0.242-0.562,0.54
			c0,0.299,0.251,0.541,0.562,0.541h4.44C5.281,42.109,5.533,41.867,5.533,41.568z"/>
	</g>
	<g>
	</g>
	<g>
	</g>
	<g>
	</g>
	<g>
	</g>
	<g>
	</g>
	<g>
	</g>
	<g>
	</g>
	<g>
	</g>
	<g>
	</g>
	<g>
	</g>
	<g>
	</g>
	<g>
	</g>
	<g>
	</g>
	<g>
	</g>
	<g>
	</g>
</g>
<g>
	<g>
		<path fill="#505977" d="M16.384,4.024c0-0.298-0.251-0.54-0.562-0.54c-3.244,0-5.884,2.539-5.884,5.661
			c0,0.298,0.25,0.54,0.562,0.54c0.311,0,0.562-0.242,0.562-0.54c0-2.525,2.136-4.58,4.761-4.58
			C16.132,4.565,16.384,4.324,16.384,4.024z"/>
		<path fill="#505977" d="M7.575,9.146c0,1.855,0.624,3.609,1.803,5.073c0.006,0.007,0.012,0.015,0.018,0.021
			c2.46,3.285,1.849,4.849,1.849,4.851c-0.132,0.27-0.01,0.592,0.271,0.72c0.077,0.033,0.158,0.051,0.238,0.051
			c0.21,0,0.414-0.116,0.509-0.312c0.102-0.207,0.905-2.143-1.984-5.98c-0.013-0.017-0.026-0.032-0.041-0.049
			C9.232,12.255,8.7,10.744,8.7,9.145c0-3.973,3.36-7.205,7.49-7.205c4.128,0,7.49,3.232,7.49,7.205
			c0,1.603-0.535,3.121-1.558,4.399c-2.892,3.841-2.056,5.799-1.95,6.01c0.132,0.264,0.456,0.373,0.734,0.253
			c0.277-0.119,0.403-0.438,0.285-0.708c-0.007-0.016-0.65-1.609,1.831-4.907c1.165-1.458,1.78-3.203,1.78-5.046
			c0-4.57-3.864-8.288-8.613-8.288C11.44,0.857,7.575,4.576,7.575,9.146z"/>
		<path fill="#505977" d="M21.206,21.942v-0.46c0-0.732-0.62-1.328-1.381-1.328h-7.574c-0.762,0-1.381,0.596-1.381,1.328v0.46
			c0,0.732,0.619,1.328,1.381,1.328h7.575C20.587,23.271,21.206,22.675,21.206,21.942z M11.994,21.942v-0.46
			c0-0.136,0.115-0.246,0.258-0.246h7.575c0.141,0,0.256,0.11,0.256,0.246v0.46c0,0.137-0.115,0.247-0.256,0.247h-7.575
			C12.109,22.189,11.994,22.079,11.994,21.942z"/>
		<path fill="#505977" d="M13.161,24.093c-0.31,0-0.562,0.242-0.562,0.541v1.429c0,0.211,0.129,0.403,0.329,0.491l3.029,1.329
			c0.074,0.033,0.153,0.049,0.233,0.049c0.082,0,0.164-0.017,0.24-0.052l3.037-1.379c0.197-0.089,0.322-0.279,0.322-0.488v-1.378
			c0-0.299-0.251-0.541-0.562-0.541c-0.311,0-0.562,0.242-0.562,0.541v1.036l-2.479,1.125l-2.463-1.081v-1.08
			C13.723,24.334,13.472,24.093,13.161,24.093z"/>
		<path fill="#505977" d="M29.283,18.916c0.185-0.24,0.131-0.579-0.118-0.757l-3.813-2.704c-0.25-0.177-0.601-0.127-0.785,0.113
			c-0.185,0.241-0.131,0.58,0.119,0.757l3.812,2.704c0.101,0.071,0.217,0.106,0.332,0.106C29.003,19.136,29.173,19.06,29.283,18.916
			z"/>
		<path fill="#505977" d="M6.943,3.742c0.101,0.071,0.217,0.104,0.333,0.104c0.173,0,0.342-0.075,0.454-0.219
			C7.914,3.388,7.86,3.049,7.61,2.871L3.712,0.106C3.462-0.072,3.11-0.02,2.926,0.22C2.741,0.461,2.795,0.799,3.045,0.977
			L6.943,3.742z"/>
		<path fill="#505977" d="M7.12,15.27l-4.074,2.89c-0.25,0.178-0.304,0.517-0.119,0.757c0.11,0.144,0.281,0.22,0.453,0.22
			c0.116,0,0.233-0.034,0.333-0.105l4.075-2.891c0.25-0.178,0.302-0.517,0.118-0.756C7.721,15.143,7.37,15.092,7.12,15.27z"/>
		<path fill="#505977" d="M24.851,2.692c-0.249,0.178-0.302,0.517-0.117,0.756c0.108,0.145,0.279,0.221,0.452,0.221
			c0.116,0,0.232-0.035,0.334-0.105l3.646-2.587c0.25-0.177,0.303-0.516,0.118-0.756s-0.536-0.292-0.785-0.113L24.851,2.692z"/>
		<path fill="#505977" d="M31.493,9.028h-4.3c-0.311,0-0.562,0.242-0.562,0.54c0,0.299,0.251,0.541,0.562,0.541h4.3
			c0.311,0,0.562-0.242,0.562-0.541C32.055,9.271,31.804,9.028,31.493,9.028z"/>
		<path fill="#505977" d="M5.646,9.568c0-0.298-0.25-0.54-0.562-0.54H0.649c-0.311,0-0.562,0.242-0.562,0.54
			c0,0.299,0.25,0.541,0.562,0.541h4.436C5.395,10.109,5.646,9.867,5.646,9.568z"/>
	</g>
	<g>
	</g>
	<g>
	</g>
	<g>
	</g>
	<g>
	</g>
	<g>
	</g>
	<g>
	</g>
	<g>
	</g>
	<g>
	</g>
	<g>
	</g>
	<g>
	</g>
	<g>
	</g>
	<g>
	</g>
	<g>
	</g>
	<g>
	</g>
	<g>
	</g>
</g>
</svg>
