<?xml version="1.0" encoding="utf-8"?>
<!-- Generator: Adobe Illustrator 16.0.4, SVG Export Plug-In . SVG Version: 6.00 Build 0)  -->
<!DOCTYPE svg PUBLIC "-//W3C//DTD SVG 1.1//EN" "http://www.w3.org/Graphics/SVG/1.1/DTD/svg11.dtd">
<svg version="1.1" id="Layer_1" xmlns="http://www.w3.org/2000/svg" xmlns:xlink="http://www.w3.org/1999/xlink" x="0px" y="0px"
	 width="403.5px" height="100px" viewBox="0 0 403.5 100" enable-background="new 0 0 403.5 100" xml:space="preserve">
<g enable-background="new    ">
	<path d="M35.393,76.029c-1.147,0.917-2.867,1.663-5.158,2.235c-2.293,0.573-4.7,0.859-7.222,0.859c-3.439,0-6.606-0.673-9.5-2.021
		C10.619,75.758,9.114,73.364,9,69.925v-0.086v-0.086c0-0.056,0-0.114,0-0.172c0-0.057,0-0.114,0-0.172v-51.84h22.008v9.457h7.05
		v11.691h-7.05c0,4.586,0,9.171,0,13.756c0,4.586,0,9.17,0,13.755c0,0.229,0.1,0.373,0.301,0.43c0.2,0.058,0.416,0.115,0.645,0.172
		c0.114,0,0.229,0,0.344,0c0.114,0,0.229-0.028,0.344-0.086c0.114,0,0.243-0.014,0.387-0.043c0.142-0.028,0.271-0.043,0.387-0.043
		c0.172-0.057,0.314-0.1,0.43-0.129c0.114-0.028,0.2-0.043,0.258-0.043c1.146-0.286,2.263-0.673,3.353-1.16
		c1.088-0.486,2.149-1.018,3.181-1.591l5.33-2.751v6.447L35.393,76.029z"/>
	<path d="M100.042,69.151c-0.746,0.573-1.519,1.176-2.321,1.806c-2.694,2.121-5.545,4.04-8.554,5.76
		c-3.009,1.72-6.177,2.579-9.5,2.579c-2.98,0-5.531-0.845-7.651-2.536c-2.121-1.689-3.181-4.084-3.181-7.179
		c0-4.298,0-8.597,0-12.896c0-4.298,0-8.597,0-12.896c0-1.432-0.402-2.493-1.204-3.181c-0.803-0.688-1.749-1.031-2.837-1.031
		c-0.23,0-0.445,0.029-0.645,0.086c-0.201,0.058-0.387,0.086-0.559,0.086c-0.23,0.058-0.445,0.115-0.645,0.172
		c-0.201,0.058-0.417,0.144-0.645,0.258v38.944H41.84V13.528h20.461v17.366c1.719-1.146,3.697-2.092,5.932-2.837
		c2.235-0.744,4.499-1.174,6.792-1.289c0.286-0.057,0.559-0.086,0.816-0.086c0.258,0,0.529,0,0.817,0
		c1.604,0,3.166,0.172,4.686,0.516c1.518,0.344,2.936,0.917,4.255,1.719c1.375,0.804,2.506,1.849,3.396,3.139
		c0.888,1.289,1.333,2.737,1.333,4.341c0,2.407,0,4.829,0,7.265c0,2.437,0,4.857,0,7.265c-0.058,2.407-0.086,4.829-0.086,7.265
		c0,2.437,0,4.857,0,7.265c0,0.229,0.086,0.416,0.258,0.559c0.172,0.144,0.372,0.187,0.602,0.129c0.344,0,0.744-0.071,1.204-0.215
		c0.458-0.143,0.916-0.329,1.375-0.559c0.114-0.057,0.243-0.114,0.387-0.172c0.142-0.057,0.301-0.143,0.473-0.259
		c0.172-0.056,0.357-0.142,0.559-0.258c0.2-0.114,0.387-0.2,0.559-0.258l6.62-3.438v6.447
		C101.532,68.006,100.786,68.579,100.042,69.151z"/>
	<path d="M140.405,69.237c-0.774,0.573-1.534,1.118-2.278,1.634c-1.147,0.803-2.336,1.534-3.568,2.192
		c-1.233,0.659-2.651,1.332-4.255,2.02c-0.172,0.059-0.359,0.129-0.559,0.216c-0.201,0.086-0.387,0.158-0.559,0.215
		c-2.293,0.917-4.657,1.749-7.093,2.493c-2.437,0.745-4.915,1.117-7.436,1.117c-0.631,0-1.29-0.028-1.978-0.086
		c-0.688-0.057-1.375-0.143-2.063-0.258c-2.694-0.458-5.216-1.432-7.565-2.923c-2.351-1.49-3.782-3.697-4.298-6.62
		c-0.058-0.344-0.101-0.688-0.129-1.031c-0.029-0.344-0.043-0.688-0.043-1.032c0-4.068,0-8.124,0-12.164c0-4.041,0-8.066,0-12.079
		c0-4.929,1.862-8.926,5.588-11.993c3.725-3.065,7.938-4.6,12.638-4.6c4.814,0,9.083,1.29,12.81,3.869
		c3.725,2.579,5.559,6.506,5.502,11.777c0,0.517-0.03,1.019-0.086,1.505c-0.058,0.487-0.115,0.988-0.172,1.505
		c-0.688,4.126-2.508,7.967-5.459,11.52c-2.953,3.555-6.462,5.732-10.531,6.534c0,0.287,0,0.588,0,0.902c0,0.315,0,0.616,0,0.902
		c0,1.491,0.4,2.523,1.204,3.096c0.802,0.573,1.833,0.859,3.095,0.859c0.458,0,0.903-0.043,1.333-0.129
		c0.43-0.086,0.873-0.157,1.333-0.215c2.407-0.458,4.729-1.217,6.964-2.278c2.235-1.06,4.441-2.163,6.62-3.31
		c0.572-0.344,1.146-0.673,1.719-0.989c0.572-0.314,1.146-0.615,1.72-0.902v6.447C141.996,68.063,141.179,68.665,140.405,69.237z
		 M128.283,42.802c0.028-0.43,0.043-0.845,0.043-1.247c0-0.172,0-0.329,0-0.473c0-0.143,0-0.271,0-0.387
		c-0.115-1.604-0.516-3.065-1.204-4.385c-0.688-1.317-1.949-1.977-3.783-1.977c-0.975,0-1.762,0.187-2.364,0.559
		c-0.602,0.373-1.16,0.932-1.676,1.676c-0.058,0.116-0.129,0.23-0.215,0.345c-0.086,0.115-0.159,0.229-0.215,0.344v17.107
		c2.463-0.344,4.499-1.489,6.104-3.438c1.604-1.948,2.635-4.068,3.095-6.362c0-0.056,0.014-0.129,0.043-0.215
		c0.028-0.086,0.043-0.185,0.043-0.301C128.211,43.647,128.254,43.231,128.283,42.802z"/>
	<path d="M214.983,71.129c-1.261,1.089-2.493,2.035-3.696,2.837c-2.121,1.434-4.371,2.551-6.749,3.353
		c-2.379,0.804-5.459,1.405-9.242,1.806c-0.574,0-1.132,0.014-1.676,0.043c-0.545,0.028-1.104,0.043-1.677,0.043
		c-0.344,0-0.674,0-0.988,0c-0.316,0-0.645-0.029-0.989-0.086c-2.235-0.057-4.385-0.473-6.448-1.246
		c-2.063-0.774-3.783-1.935-5.158-3.482v14.529h-21.407V27.026h21.407v4.04c1.032-1.031,2.278-1.848,3.74-2.45
		c1.461-0.602,2.966-1.045,4.513-1.332c0.63-0.114,1.275-0.186,1.935-0.215c0.658-0.028,1.303-0.043,1.934-0.043
		c0.344,0,0.688,0.015,1.032,0.043c0.344,0.029,0.688,0.072,1.032,0.129c3.381,0.344,6.461,1.519,9.242,3.524
		c2.779,2.007,4.17,4.93,4.17,8.77v27.854c0.859-0.172,1.661-0.415,2.406-0.73c0.744-0.314,1.49-0.673,2.236-1.074
		c0.4-0.229,0.801-0.458,1.203-0.688c0.4-0.228,0.83-0.458,1.289-0.688l6.104-3.181v6.447
		C217.648,68.808,216.244,70.041,214.983,71.129z M186.184,57.847c0-2.092,0-4.17,0-6.233c0-1.775,0-3.524,0-5.244
		c0-1.719,0-3.438,0-5.158c0-1.432-0.473-2.55-1.418-3.353c-0.946-0.802-1.992-1.174-3.138-1.118c-0.573,0-1.147,0.116-1.719,0.345
		c-0.574,0.229-1.089,0.573-1.547,1.031v28.972c0.458,0.46,0.989,0.817,1.59,1.075c0.602,0.258,1.189,0.358,1.762,0.301
		c1.146,0,2.178-0.387,3.095-1.161c0.916-0.773,1.375-1.876,1.375-3.31C186.184,61.987,186.184,59.939,186.184,57.847z"/>
	<path d="M242.665,71.549c-0.229,0.172-0.46,0.345-0.688,0.517s-0.459,0.345-0.688,0.517c-2.293,1.723-4.643,3.243-7.049,4.562
		c-2.408,1.321-5.131,1.98-8.168,1.98c-2.98,0-5.617-0.831-7.908-2.496c-2.293-1.664-3.439-4.074-3.439-7.23V13.528h22.008
		c0,8.609,0,17.219,0,25.826c0,8.608,0,17.216,0,25.823c0,0.288,0.086,0.504,0.258,0.646c0.172,0.144,0.4,0.215,0.688,0.215
		c0.228,0,0.473-0.043,0.73-0.129c0.259-0.086,0.529-0.186,0.817-0.301c0.172-0.057,0.328-0.114,0.473-0.172
		c0.143-0.057,0.271-0.114,0.387-0.174c0.344-0.172,0.645-0.329,0.902-0.473c0.258-0.143,0.443-0.243,0.559-0.301l6.534-3.444v6.457
		L242.665,71.549z"/>
	<path d="M303.617,69.323c-0.859,0.688-1.749,1.376-2.665,2.063c-1.376,1.09-2.809,2.149-4.298,3.181
		c-1.492,1.032-3.01,1.892-4.557,2.579c-0.746,0.402-1.505,0.731-2.279,0.989c-0.773,0.258-1.533,0.473-2.277,0.645
		c-0.574,0.058-1.176,0.129-1.806,0.215c-0.632,0.086-1.261,0.129-1.892,0.129c-0.058,0-0.115,0-0.172,0c-0.058,0-0.115,0-0.172,0
		c-2.179-0.057-4.242-0.559-6.189-1.505c-1.949-0.945-3.324-2.536-4.127-4.771c-1.434,2.007-3.34,3.524-5.717,4.556
		c-2.379,1.032-4.857,1.577-7.437,1.634c-0.058,0-0.129,0-0.215,0s-0.187,0-0.301,0c-1.262,0-2.522-0.129-3.782-0.387
		c-1.262-0.258-2.438-0.615-3.525-1.075c-2.121-0.916-3.869-2.277-5.244-4.083s-2.063-4.112-2.063-6.921V39.319
		c0-4.011,1.489-7.02,4.471-9.026c2.979-2.006,6.276-3.123,9.886-3.353c0.229-0.057,0.474-0.086,0.731-0.086s0.529,0,0.817,0
		c0.973,0,1.934,0.058,2.879,0.172c0.946,0.115,1.849,0.315,2.709,0.602c1.26,0.344,2.42,0.816,3.481,1.418
		c1.06,0.603,1.962,1.305,2.708,2.106v-4.298h22.18v38.257c0,0.287,0.086,0.502,0.258,0.645c0.172,0.144,0.373,0.215,0.603,0.215
		c0.229,0,0.473-0.043,0.73-0.129c0.259-0.086,0.529-0.186,0.817-0.301c0.172-0.057,0.328-0.114,0.473-0.172
		c0.143-0.057,0.301-0.114,0.473-0.172c0.344-0.173,0.645-0.329,0.902-0.474c0.258-0.142,0.443-0.243,0.559-0.301l6.534-3.438v6.447
		C305.307,68.006,304.477,68.636,303.617,69.323z M272.582,38.202c-0.402-0.458-0.832-0.816-1.289-1.074
		c-0.46-0.259-0.946-0.415-1.462-0.474c-0.116-0.056-0.229-0.086-0.345-0.086s-0.229,0-0.344,0c-1.146,0-2.178,0.388-3.094,1.161
		c-0.918,0.773-1.376,1.878-1.376,3.31c0,1.892,0,3.783,0,5.674c0,1.892,0,3.783,0,5.675c0,1.948,0,3.868,0,5.76s0,3.782,0,5.674
		c0,1.434,0.486,2.536,1.462,3.31c0.973,0.774,2.033,1.161,3.18,1.161c0.631,0,1.232-0.129,1.807-0.387
		c0.572-0.258,1.059-0.646,1.461-1.161V38.202z"/>
	<path d="M356.919,71.73c-0.116,0.115-0.245,0.215-0.388,0.301s-0.271,0.187-0.387,0.301c-2.406,1.835-4.871,3.454-7.393,4.857
		c-2.523,1.405-5.359,2.106-8.512,2.106c-2.98,0-5.531-0.845-7.65-2.536c-2.121-1.689-3.182-4.084-3.182-7.179
		c0-4.298,0-8.597,0-12.896c0-4.298,0-8.597,0-12.896c0-1.317-0.387-2.35-1.16-3.095c-0.773-0.744-1.734-1.088-2.881-1.031
		c-0.229,0-0.444,0.015-0.645,0.043c-0.201,0.029-0.444,0.072-0.73,0.129c-0.115,0-0.215,0.015-0.301,0.043
		c-0.086,0.029-0.188,0.072-0.301,0.129c-0.059,0.058-0.129,0.101-0.215,0.129c-0.086,0.029-0.188,0.043-0.301,0.043v38.944h-20.461
		v-52.27h20.461v4.04c1.719-1.146,3.666-2.076,5.846-2.794c2.178-0.716,4.385-1.16,6.619-1.332c0.287-0.057,0.588-0.086,0.902-0.086
		s0.615,0,0.903,0c1.604,0,3.181,0.172,4.729,0.516s2.979,0.917,4.298,1.719c1.376,0.804,2.508,1.849,3.396,3.139
		c0.888,1.289,1.332,2.737,1.332,4.341c0,2.407,0,4.829,0,7.265c0,2.437,0,4.857,0,7.265c-0.057,2.407-0.086,4.829-0.086,7.265
		c0,2.437,0,4.857,0,7.265c0,0.287,0.086,0.487,0.258,0.602c0.172,0.115,0.4,0.172,0.688,0.172c0.228,0,0.473-0.043,0.73-0.129
		s0.529-0.186,0.817-0.301c0.172-0.057,0.328-0.114,0.473-0.172c0.143-0.057,0.271-0.114,0.387-0.172
		c0.344-0.172,0.645-0.329,0.902-0.474c0.258-0.142,0.443-0.242,0.559-0.301l7.136-3.696v6.447L356.919,71.73z"/>
	<path d="M385.202,76.029c-1.147,0.917-2.866,1.663-5.158,2.235c-2.293,0.573-4.7,0.859-7.222,0.859c-3.439,0-6.606-0.673-9.5-2.021
		c-2.895-1.346-4.398-3.739-4.514-7.179v-0.086v-0.086c0-0.056,0-0.114,0-0.172c0-0.057,0-0.114,0-0.172v-51.84h22.009v9.457h7.05
		v11.691h-7.05c0,4.586,0,9.171,0,13.756c0,4.586,0,9.17,0,13.755c0,0.229,0.1,0.373,0.301,0.43c0.2,0.058,0.415,0.115,0.646,0.172
		c0.113,0,0.229,0,0.344,0c0.113,0,0.229-0.028,0.344-0.086c0.113,0,0.242-0.014,0.387-0.043c0.143-0.028,0.271-0.043,0.387-0.043
		c0.172-0.057,0.314-0.1,0.43-0.129c0.114-0.028,0.2-0.043,0.258-0.043c1.146-0.286,2.264-0.673,3.354-1.16
		c1.088-0.486,2.148-1.018,3.181-1.591l5.33-2.751v6.447L385.202,76.029z"/>
</g>
</svg>
