<?xml version="1.0" encoding="utf-8"?>
<!-- Generator: Adobe Illustrator 19.0.0, SVG Export Plug-In . SVG Version: 6.00 Build 0)  -->
<svg version="1.1" id="Layer_1" xmlns="http://www.w3.org/2000/svg" xmlns:xlink="http://www.w3.org/1999/xlink" x="0px" y="0px"
	 viewBox="-95 370.9 403.5 100" style="enable-background:new -95 370.9 403.5 100;" xml:space="preserve">
<style type="text/css">
	.st0{enable-background:new    ;}
	.st1{fill:#231010;}
	.st2{fill:#0C97AA;}
</style>
<g class="st0">
	<path d="M-59.6,446.9c-1.1,0.9-2.9,1.7-5.2,2.2c-2.3,0.6-4.7,0.9-7.2,0.9c-3.4,0-6.6-0.7-9.5-2c-2.9-1.3-4.4-3.7-4.5-7.2v-0.1v-0.1
		c0-0.1,0-0.1,0-0.2c0-0.1,0-0.1,0-0.2v-51.8h22v9.5h7v11.7h-7c0,4.6,0,9.2,0,13.8c0,4.6,0,9.2,0,13.8c0,0.2,0.1,0.4,0.3,0.4
		c0.2,0.1,0.4,0.1,0.6,0.2c0.1,0,0.2,0,0.3,0c0.1,0,0.2,0,0.3-0.1c0.1,0,0.2,0,0.4,0c0.1,0,0.3,0,0.4,0c0.2-0.1,0.3-0.1,0.4-0.1
		c0.1,0,0.2,0,0.3,0c1.1-0.3,2.3-0.7,3.4-1.2c1.1-0.5,2.1-1,3.2-1.6l5.3-2.8v6.4L-59.6,446.9z"/>
	<path d="M5,440c-0.7,0.6-1.5,1.2-2.3,1.8c-2.7,2.1-5.5,4-8.6,5.8s-6.2,2.6-9.5,2.6c-3,0-5.5-0.8-7.7-2.5c-2.1-1.7-3.2-4.1-3.2-7.2
		c0-4.3,0-8.6,0-12.9c0-4.3,0-8.6,0-12.9c0-1.4-0.4-2.5-1.2-3.2c-0.8-0.7-1.7-1-2.8-1c-0.2,0-0.4,0-0.6,0.1
		c-0.2,0.1-0.4,0.1-0.6,0.1c-0.2,0.1-0.4,0.1-0.6,0.2c-0.2,0.1-0.4,0.1-0.6,0.3V450h-20.5v-65.6h20.5v17.4c1.7-1.1,3.7-2.1,5.9-2.8
		c2.2-0.7,4.5-1.2,6.8-1.3c0.3-0.1,0.6-0.1,0.8-0.1c0.3,0,0.5,0,0.8,0c1.6,0,3.2,0.2,4.7,0.5c1.5,0.3,2.9,0.9,4.3,1.7
		c1.4,0.8,2.5,1.8,3.4,3.1c0.9,1.3,1.3,2.7,1.3,4.3c0,2.4,0,4.8,0,7.3c0,2.4,0,4.9,0,7.3c-0.1,2.4-0.1,4.8-0.1,7.3
		c0,2.4,0,4.9,0,7.3c0,0.2,0.1,0.4,0.3,0.6c0.2,0.1,0.4,0.2,0.6,0.1c0.3,0,0.7-0.1,1.2-0.2c0.5-0.1,0.9-0.3,1.4-0.6
		c0.1-0.1,0.2-0.1,0.4-0.2c0.1-0.1,0.3-0.1,0.5-0.3c0.2-0.1,0.4-0.1,0.6-0.3c0.2-0.1,0.4-0.2,0.6-0.3l6.6-3.4v6.4
		C6.5,438.9,5.8,439.5,5,440z"/>
	<path d="M45.4,440.1c-0.8,0.6-1.5,1.1-2.3,1.6c-1.1,0.8-2.3,1.5-3.6,2.2c-1.2,0.7-2.7,1.3-4.3,2c-0.2,0.1-0.4,0.1-0.6,0.2
		c-0.2,0.1-0.4,0.2-0.6,0.2c-2.3,0.9-4.7,1.7-7.1,2.5c-2.4,0.7-4.9,1.1-7.4,1.1c-0.6,0-1.3,0-2-0.1c-0.7-0.1-1.4-0.1-2.1-0.3
		c-2.7-0.5-5.2-1.4-7.6-2.9c-2.4-1.5-3.8-3.7-4.3-6.6c-0.1-0.3-0.1-0.7-0.1-1c0-0.3,0-0.7,0-1c0-4.1,0-8.1,0-12.2c0-4,0-8.1,0-12.1
		c0-4.9,1.9-8.9,5.6-12c3.7-3.1,7.9-4.6,12.6-4.6c4.8,0,9.1,1.3,12.8,3.9c3.7,2.6,5.6,6.5,5.5,11.8c0,0.5,0,1-0.1,1.5
		c-0.1,0.5-0.1,1-0.2,1.5c-0.7,4.1-2.5,8-5.5,11.5c-3,3.6-6.5,5.7-10.5,6.5c0,0.3,0,0.6,0,0.9c0,0.3,0,0.6,0,0.9
		c0,1.5,0.4,2.5,1.2,3.1c0.8,0.6,1.8,0.9,3.1,0.9c0.5,0,0.9,0,1.3-0.1s0.9-0.2,1.3-0.2c2.4-0.5,4.7-1.2,7-2.3
		c2.2-1.1,4.4-2.2,6.6-3.3c0.6-0.3,1.1-0.7,1.7-1c0.6-0.3,1.1-0.6,1.7-0.9v6.4C47,439,46.2,439.6,45.4,440.1z M33.3,413.7
		c0-0.4,0-0.8,0-1.2c0-0.2,0-0.3,0-0.5c0-0.1,0-0.3,0-0.4c-0.1-1.6-0.5-3.1-1.2-4.4c-0.7-1.3-1.9-2-3.8-2c-1,0-1.8,0.2-2.4,0.6
		c-0.6,0.4-1.2,0.9-1.7,1.7c-0.1,0.1-0.1,0.2-0.2,0.3c-0.1,0.1-0.2,0.2-0.2,0.3v17.1c2.5-0.3,4.5-1.5,6.1-3.4
		c1.6-1.9,2.6-4.1,3.1-6.4c0-0.1,0-0.1,0-0.2c0-0.1,0-0.2,0-0.3C33.2,414.5,33.3,414.1,33.3,413.7z"/>
	<path d="M120,442c-1.3,1.1-2.5,2-3.7,2.8c-2.1,1.4-4.4,2.6-6.7,3.4c-2.4,0.8-5.5,1.4-9.2,1.8c-0.6,0-1.1,0-1.7,0
		c-0.5,0-1.1,0-1.7,0c-0.3,0-0.7,0-1,0c-0.3,0-0.6,0-1-0.1c-2.2-0.1-4.4-0.5-6.4-1.2c-2.1-0.8-3.8-1.9-5.2-3.5v14.5H62v-61.9h21.4v4
		c1-1,2.3-1.8,3.7-2.4c1.5-0.6,3-1,4.5-1.3c0.6-0.1,1.3-0.2,1.9-0.2c0.7,0,1.3,0,1.9,0c0.3,0,0.7,0,1,0c0.3,0,0.7,0.1,1,0.1
		c3.4,0.3,6.5,1.5,9.2,3.5c2.8,2,4.2,4.9,4.2,8.8v27.9c0.9-0.2,1.7-0.4,2.4-0.7c0.7-0.3,1.5-0.7,2.2-1.1c0.4-0.2,0.8-0.5,1.2-0.7
		c0.4-0.2,0.8-0.5,1.3-0.7l6.1-3.2v6.4C122.6,439.7,121.2,440.9,120,442z M91.2,428.7c0-2.1,0-4.2,0-6.2c0-1.8,0-3.5,0-5.2
		c0-1.7,0-3.4,0-5.2c0-1.4-0.5-2.5-1.4-3.4c-0.9-0.8-2-1.2-3.1-1.1c-0.6,0-1.1,0.1-1.7,0.3c-0.6,0.2-1.1,0.6-1.5,1v29
		c0.5,0.5,1,0.8,1.6,1.1c0.6,0.3,1.2,0.4,1.8,0.3c1.1,0,2.2-0.4,3.1-1.2c0.9-0.8,1.4-1.9,1.4-3.3C91.2,432.9,91.2,430.8,91.2,428.7z
		"/>
	<path d="M147.7,442.4c-0.2,0.2-0.5,0.3-0.7,0.5s-0.5,0.3-0.7,0.5c-2.3,1.7-4.6,3.2-7,4.6c-2.4,1.3-5.1,2-8.2,2
		c-3,0-5.6-0.8-7.9-2.5c-2.3-1.7-3.4-4.1-3.4-7.2v-55.9h22c0,8.6,0,17.2,0,25.8c0,8.6,0,17.2,0,25.8c0,0.3,0.1,0.5,0.3,0.6
		c0.2,0.1,0.4,0.2,0.7,0.2c0.2,0,0.5,0,0.7-0.1c0.3-0.1,0.5-0.2,0.8-0.3c0.2-0.1,0.3-0.1,0.5-0.2c0.1-0.1,0.3-0.1,0.4-0.2
		c0.3-0.2,0.6-0.3,0.9-0.5c0.3-0.1,0.4-0.2,0.6-0.3l6.5-3.4v6.5L147.7,442.4z"/>
	<path d="M208.6,440.2c-0.9,0.7-1.7,1.4-2.7,2.1c-1.4,1.1-2.8,2.1-4.3,3.2c-1.5,1-3,1.9-4.6,2.6c-0.7,0.4-1.5,0.7-2.3,1
		c-0.8,0.3-1.5,0.5-2.3,0.6c-0.6,0.1-1.2,0.1-1.8,0.2c-0.6,0.1-1.3,0.1-1.9,0.1c-0.1,0-0.1,0-0.2,0c-0.1,0-0.1,0-0.2,0
		c-2.2-0.1-4.2-0.6-6.2-1.5c-1.9-0.9-3.3-2.5-4.1-4.8c-1.4,2-3.3,3.5-5.7,4.6c-2.4,1-4.9,1.6-7.4,1.6c-0.1,0-0.1,0-0.2,0
		s-0.2,0-0.3,0c-1.3,0-2.5-0.1-3.8-0.4c-1.3-0.3-2.4-0.6-3.5-1.1c-2.1-0.9-3.9-2.3-5.2-4.1s-2.1-4.1-2.1-6.9v-27.3c0-4,1.5-7,4.5-9
		c3-2,6.3-3.1,9.9-3.4c0.2-0.1,0.5-0.1,0.7-0.1s0.5,0,0.8,0c1,0,1.9,0.1,2.9,0.2c0.9,0.1,1.8,0.3,2.7,0.6c1.3,0.3,2.4,0.8,3.5,1.4
		c1.1,0.6,2,1.3,2.7,2.1v-4.3h22.2V436c0,0.3,0.1,0.5,0.3,0.6c0.2,0.1,0.4,0.2,0.6,0.2c0.2,0,0.5,0,0.7-0.1c0.3-0.1,0.5-0.2,0.8-0.3
		c0.2-0.1,0.3-0.1,0.5-0.2c0.1-0.1,0.3-0.1,0.5-0.2c0.3-0.2,0.6-0.3,0.9-0.5c0.3-0.1,0.4-0.2,0.6-0.3l6.5-3.4v6.4
		C210.3,438.9,209.5,439.5,208.6,440.2z M177.6,409.1c-0.4-0.5-0.8-0.8-1.3-1.1c-0.5-0.3-0.9-0.4-1.5-0.5c-0.1-0.1-0.2-0.1-0.3-0.1
		s-0.2,0-0.3,0c-1.1,0-2.2,0.4-3.1,1.2c-0.9,0.8-1.4,1.9-1.4,3.3c0,1.9,0,3.8,0,5.7c0,1.9,0,3.8,0,5.7c0,1.9,0,3.9,0,5.8
		s0,3.8,0,5.7c0,1.4,0.5,2.5,1.5,3.3c1,0.8,2,1.2,3.2,1.2c0.6,0,1.2-0.1,1.8-0.4c0.6-0.3,1.1-0.6,1.5-1.2V409.1z"/>
	<path d="M261.9,442.6c-0.1,0.1-0.2,0.2-0.4,0.3c-0.1,0.1-0.3,0.2-0.4,0.3c-2.4,1.8-4.9,3.5-7.4,4.9c-2.5,1.4-5.4,2.1-8.5,2.1
		c-3,0-5.5-0.8-7.6-2.5c-2.1-1.7-3.2-4.1-3.2-7.2c0-4.3,0-8.6,0-12.9c0-4.3,0-8.6,0-12.9c0-1.3-0.4-2.4-1.2-3.1
		c-0.8-0.7-1.7-1.1-2.9-1c-0.2,0-0.4,0-0.6,0c-0.2,0-0.4,0.1-0.7,0.1c-0.1,0-0.2,0-0.3,0c-0.1,0-0.2,0.1-0.3,0.1
		c-0.1,0.1-0.1,0.1-0.2,0.1c-0.1,0-0.2,0-0.3,0V450h-20.5v-52.3h20.5v4c1.7-1.1,3.7-2.1,5.8-2.8c2.2-0.7,4.4-1.2,6.6-1.3
		c0.3-0.1,0.6-0.1,0.9-0.1s0.6,0,0.9,0c1.6,0,3.2,0.2,4.7,0.5c1.5,0.3,3,0.9,4.3,1.7c1.4,0.8,2.5,1.8,3.4,3.1
		c0.9,1.3,1.3,2.7,1.3,4.3c0,2.4,0,4.8,0,7.3c0,2.4,0,4.9,0,7.3c-0.1,2.4-0.1,4.8-0.1,7.3c0,2.4,0,4.9,0,7.3c0,0.3,0.1,0.5,0.3,0.6
		c0.2,0.1,0.4,0.2,0.7,0.2c0.2,0,0.5,0,0.7-0.1s0.5-0.2,0.8-0.3c0.2-0.1,0.3-0.1,0.5-0.2c0.1-0.1,0.3-0.1,0.4-0.2
		c0.3-0.2,0.6-0.3,0.9-0.5c0.3-0.1,0.4-0.2,0.6-0.3l7.1-3.7v6.4L261.9,442.6z"/>
	<path d="M290.2,446.9c-1.1,0.9-2.9,1.7-5.2,2.2c-2.3,0.6-4.7,0.9-7.2,0.9c-3.4,0-6.6-0.7-9.5-2c-2.9-1.3-4.4-3.7-4.5-7.2v-0.1v-0.1
		c0-0.1,0-0.1,0-0.2c0-0.1,0-0.1,0-0.2v-51.8h22v9.5h7v11.7h-7c0,4.6,0,9.2,0,13.8c0,4.6,0,9.2,0,13.8c0,0.2,0.1,0.4,0.3,0.4
		c0.2,0.1,0.4,0.1,0.6,0.2c0.1,0,0.2,0,0.3,0c0.1,0,0.2,0,0.3-0.1c0.1,0,0.2,0,0.4,0c0.1,0,0.3,0,0.4,0c0.2-0.1,0.3-0.1,0.4-0.1
		c0.1,0,0.2,0,0.3,0c1.1-0.3,2.3-0.7,3.4-1.2c1.1-0.5,2.1-1,3.2-1.6l5.3-2.8v6.4L290.2,446.9z"/>
</g>
<g>
	<path class="st1" d="M-53.1,393.2l-0.4-0.3v39.9v0.2l-1,0.5c-1,0.6-2,1.1-3.1,1.6c-1.1,0.5-2.2,0.9-3.3,1.1c-0.1,0-0.1,0-0.3,0.1
		c-0.1,0-0.3,0.1-0.4,0.1c-0.1,0-0.3,0-0.4,0.1c-0.1,0-0.3,0.3-0.4,0.3c-0.1,0.1-0.3,0.3-0.3,0.3c-0.1,0-0.3,0-0.3,0
		c-0.3,0-0.7-0.4-0.9-0.4c-0.2-0.1-0.5-0.4-0.5-0.7c0-4.6,0-9.2,0-13.8s0-8.7,0-13.1h7V397h-7v-3.2l-5.1,0.3
		c-5.7,3.2-10.8,8.6-16.6,12.2v32.8c0,0.1,0,0.1,0,0.2c0,0.1,0,0.1,0,0.2v0.1v0.1c0,3.4,1.7,5.9,4.6,7.2c2.9,1.3,6.1,2,9.6,2
		c2.5,0,5-0.3,7.3-0.8c2.3-0.6,3.8-1.3,4.9-2.2l6.2-5.2v8.5h20.4v-35.3C-42,410.9-44.6,398.1-53.1,393.2z M-49,437.1l-4.4,3.3l0,0
		L-49,437.1L-49,437.1z"/>
	<path class="st1" d="M44.5,432.6c-2.2,1.1-4.3,2.2-6.6,3.3c-2.2,1.1-4.5,1.8-6.9,2.3c-0.4,0.1-0.9,0.1-1.3,0.2
		c-0.4,0.1-0.9,0.1-1.3,0.1c-1.3,0-2.5-0.3-3.3-0.8c-0.8-0.6-1.4-1.6-1.4-3.1c0-0.3,0-0.6,0-0.9c0-0.3,0-0.6,0-0.9
		c4.5-0.8,7.8-3,10.7-6.6c2.9-3.6,4.8-7.4,5.5-11.5c0-0.3,0.1-0.4,0.1-0.6c-2.1-1.7-4.3-3.4-6.8-4c0.1,0.1,0,0.2,0,0.3s0,0.3,0,0.4
		s0,0.3,0,0.4c0,0.4,0.1,0.8,0.1,1.3s0,0.8-0.1,1.3c0,0.1,0,0.2,0,0.3c0,0.1,0,0.1,0,0.2c-0.4,2.3-1.7,4.4-3.3,6.4
		c-1.6,2-3.8,3.1-6.3,3.4v-10.4c-3.2,3.9-5.4,9.3-9.4,9.1c-4.9-0.3-6.7-8.4-10.3-14.3c-0.3,1.3-0.6,2.7-0.6,4.1c0,4,0,8,0,12.1
		c0,2.5,0,5.2,0,7.8l0,0l0,0l-2.7,1.5c-0.2,0.1-0.3,0.1-0.4,0.3s-0.3,0.2-0.5,0.3c-0.2,0.1-0.3,0.2-0.4,0.3
		c-0.1,0.1-0.3,0.1-0.4,0.2c-0.4,0.3-0.9,0.4-1.3,0.6c-0.4,0.1-0.8,0.2-1.2,0.2c-0.3,0.1-0.6,0-0.8-0.1s-0.4-0.3-0.4-0.6
		c0-2.4,0-4.8,0-7.3c0-2.4,0-4.8,0-7.3s0-4.8,0-7.3c0-2.4,0-4.8,0-7.3c0-1.2,0-2.4-0.5-3.4c-6.8,0.7-12.2,9.9-20.5,11.5
		c0,4,0,8.1,0,12.1c0,4.3,0,8.6,0,12.9c0,3.1,1.1,5.5,3.2,7.2c2.1,1.7,4.7,2.5,7.6,2.5c3.3,0,6.5-0.8,9.5-2.5c3-1.7,5.9-3.6,8.5-5.7
		c0.4-0.3,0.8-0.6,1.2-1c-0.1-0.3-0.3-0.5-0.3-0.8c0.1-0.4-0.1-0.7-0.1-1.1c0,0.3,0.2,0.7,0.3,1c0.1,0.3,0.2,0.5,0.3,0.8
		c0.4-0.3,0.6-0.6,1-0.9c0.7-0.5,1.4-1.1,2-1.7v-6.3l0,0v6.4c-0.6,0.6-1.3,1.1-2,1.7c-0.4,0.3-0.6,0.6-1,0.9c0.6,2.5,2,4.5,4.1,5.9
		c2.4,1.5,4.9,2.5,7.6,2.9c0.7,0.1,1.4,0.2,2.1,0.3c0.7,0.1,1.3,0.1,2,0.1c2.5,0,5-0.4,7.5-1.1c2.4-0.8,4.8-1.6,7.1-2.5
		c0.2-0.1,0.4-0.1,0.6-0.2c0.2-0.1,0.4-0.1,0.6-0.2c1.6-0.7,3-1.3,4.3-2c1.2-0.6,2.4-1.4,3.6-2.2c0.8-0.5,1.4-1.1,2.2-1.7
		c0.8-0.6,1.1-1.1,2.4-1.8v-6.6c-0.6,0.3-1.1,0.6-1.7,0.9C45.6,431.9,45.1,432.2,44.5,432.6z"/>
	<path class="st1" d="M119.8,433.1L119.8,433.1L119.8,433.1z"/>
	<path class="st1" d="M149.8,409v23.4l-3.2,1.8c-0.1,0.1-0.3,0.1-0.5,0.3c-0.3,0.1-0.5,0.3-0.9,0.4c-0.1,0.1-0.3,0.1-0.4,0.2
		c-0.1,0.1-0.3,0.1-0.4,0.2c-0.3,0.1-0.6,0.2-0.8,0.3c-0.3,0.1-0.5,0.1-0.7,0.1c-0.3,0-0.7-0.1-0.9-0.2c-0.2-0.1-0.4-0.4-0.4-0.6
		c0-6.2,0-12.5,0-18.7c-1.9,6.9-4.3,12.8-7.5,12.9c-5.3,0.3-8.4-15.4-14.1-22.3v26.2l4.5-2.4v0.1l-4.4,2.3v6l0,0v-6l-1.6,0.8
		c-0.4,0.3-0.9,0.4-1.3,0.7c-0.4,0.3-0.8,0.4-1.2,0.7c-0.8,0.4-1.6,0.8-2.4,1.1c-0.8,0.3-1.8,0.6-2.5,0.7v-27.8c0-1.8-0.3-3.5-1-4.9
		c-6.9,2.6-12.4,12.4-18.8,15.3c0,0.6,0,1.2,0,1.8c0,2,0,4.1,0,6.2c0,2.1,0,4.1,0,6.1c0,1.5-0.4,2.5-1.3,3.3
		c-0.9,0.8-1.9,1.1-3.1,1.1c-0.6,0.1-1.5-0.1-2-0.3c-0.6-0.3-1.3-0.6-1.9-1.1v-17.7c-5.1-3.2-6.2-11.7-12.9-12.2
		c-3.4-0.3-5.6,1.7-8.2,4.1v47.8h21v-14.6c1.9,1.5,3.4,2.7,5.5,3.5c2,0.8,4.4,1.3,6.6,1.3c0.3,0.1,0.8,0.2,1.1,0.2c0.3,0,0.6,0,1,0
		c0.6,0,1.1-0.1,1.7-0.2c0.6,0,1.1-0.1,1.7-0.1c3.8-0.4,6.9-1,9.2-1.8c2.4-0.8,4.7-1.9,6.8-3.4c1.1-0.8,2.3-1.7,3.5-2.7
		c0.4,2.3,1.5,4,3.3,5.4c2.3,1.7,4.9,2.5,7.9,2.5c3.1,0,5.7-0.6,8.2-2s4.8-2.9,7.1-4.6c0.3-0.2,0.4-0.3,0.7-0.5
		c0.3-0.2,0.4-0.3,0.7-0.5l2.4-1.9v-0.1l2.7-2.1v0.1l-2.7,2.2c0.3,1.5,1,2.7,1.8,3.8c1.4,1.8,3.2,3.2,5.3,4.1c1.1,0.4,2.3,1,3.6,1.3
		c1.3,0.3,2.5,0.6,3.8,0.6c0.1,0,0.2,0,0.3,0c0.1,0,0.1,0,0.2,0c0.1,0,0.3-0.2,0.4-0.3c-8-11.9-9.8-36.1-12.3-48
		C151,403,149.8,405.6,149.8,409z"/>
	<path class="st1" d="M217.8,403c-4-0.9-7.5,0.8-10.7,2.7v27l3.8-2v0.1l-3.8,2v0.1l-2.6,1.3c-0.1,0.1-0.2,0.1-0.4,0.3
		c-0.3,0.1-0.5,0.3-0.8,0.4c-0.2,0.1-0.3,0.1-0.4,0.2c-0.1,0.1-0.3,0.1-0.4,0.2c-0.3,0.1-0.6,0.2-0.8,0.3c-0.3,0.1-0.5,0.1-0.7,0.1
		c-0.3,0-0.6-0.1-0.8-0.2s-0.4-0.4-0.4-0.6V413c-8.3,11.6-4.7,27-10.1,35.8c0.4,0,1-0.1,1.4-0.1c0.6-0.1,1.3-0.1,1.8-0.2
		c0.8-0.2,1.5-0.4,2.3-0.6c0.8-0.3,1.5-0.6,2.3-1c1.5-0.7,3.1-1.5,4.6-2.5c1.5-1,2.7-2.1,4.1-3.2c0.4-0.4,0.6-0.7,1.1-1v9h20.4
		v-24.5C224.3,418.6,224.9,404.6,217.8,403z"/>
	<path class="st1" d="M255.9,435.7l-0.2-5.2"/>
	<path class="st1" d="M255.8,425.9L255.8,425.9c-2.3-2.5-4.7-5.4-8.9-5.6c-5.7-0.3-9.1,4.5-12.3,6.4c0,4.2,0,8.5,0,12.7
		c0,3.1,1.1,5.5,3.2,7.2c2.1,1.7,4.7,2.5,7.6,2.5c3.1,0,6-0.7,8.5-2.1c2.5-1.4,5-3,7.4-4.8c0.1-0.1,0.3-0.2,0.4-0.3
		c0.1-0.1,0.3-0.2,0.4-0.3l1.7-1.3c0.3,3.2,1.8,5.4,4.5,6.7c2.9,1.3,6.1,2,9.6,2c2.5,0,5-0.3,7.3-0.8c2.3-0.6,4-1.3,5.1-2.2
		l10.5-8.6v-6.5l-5.3,2.7c-1,0.6-2,1.1-3.1,1.6c-1.1,0.5-2.2,0.9-3.4,1.1c-0.1,0-0.1,0-0.3,0.1c-0.1,0-0.3,0.1-0.4,0.1
		c-0.1,0-0.3,0.2-0.4,0.3c-0.1,0-0.3,0.1-0.4,0.1c-0.1,0.1-0.4,0.3-0.4,0.3c-0.1,0-0.1,0-0.2,0c-0.3,0-0.7-0.4-0.9-0.4
		c-0.2-0.1-0.5-0.4-0.5-0.7c0-4.6,0-9.2,0-13.8c0-4.6,0-8.7,0-13.1h7v-12.1h-0.3c-13.8,22.3-22.6,30.5-28.4,32.1v3.7l3.8-2l0,0
		l-3.8,2l-3.1,1.7c-0.1,0.1-0.3,0.1-0.5,0.3c-0.3,0.1-0.6,0.3-0.9,0.4c-0.1,0.1-0.3,0.1-0.4,0.2c-0.1,0.1-0.3,0.1-0.4,0.2
		c-0.3,0.1-0.6,0.2-0.8,0.3c-0.3,0.1-0.5,0.1-0.7,0.1c-0.3,0-0.7-0.1-0.9-0.2c-0.1,0-0.1-0.1-0.1-0.1c0,0,0.1,0,0.1,0.1l-0.1-0.1"/>
</g>
<g>
	<path class="st2" d="M-86,395v11.3c5.7-3.7,11.1-9,16.8-12.2h-0.1l5-0.3v-2v-4.5H-86V395z"/>
	<path class="st2" d="M119.8,383.5v0.3v23c5.7,6.9,8.9,22.6,14.1,22.3c3.2-0.2,5.6-6.1,7.5-12.9c0-2.4,0-4.7,0-7.1
		c0-8.6,0-17.3,0-25.6h-11.4H119.8L119.8,383.5z"/>
	<path class="st2" d="M-9.3,398.6c-1.3-0.8-2.7-1.1-4.3-1.5c-1.5-0.3-3.1-0.3-4.7-0.3c-0.3,0-0.6,0-0.8,0c-0.3,0-0.5-0.3-0.8-0.2
		c-2.3,0.1-4.8,0.4-7.1,1.1s-4.3,1.5-6.2,2.7V392v-8.5h-20.4v9.4c0,0.1,0.4,0.2,0.6,0.3h-0.1c8.5,4.9,11,17.7,19.9,20.6v-4
		c0.6-0.1,0.7-0.2,0.9-0.3c0.2-0.1,0.6-0.1,0.8-0.2c0.2,0,0.4,0,0.6-0.1c0.2-0.1,0.4-0.1,0.7-0.1c1.1,0,2,0.3,2.8,1
		c0.8,0.7,1.2,1.7,1.2,3.2c0,0.3,0,0.5,0,0.8c8.3-1.6,13.9-10.8,20.8-11.5c-0.2-0.3-0.4-0.6-0.6-1C-6.9,400.5-7.9,399.4-9.3,398.6z"
		/>
	<path class="st2" d="M34.7,399.9c-3.7-2.5-8-3.9-12.8-3.9c-4.7,0-8.9,1.5-12.6,4.6c-2.6,2.2-4.7,4.9-5.5,8
		c3.6,5.9,5.4,13.9,10.3,14.1c4.1,0.2,6.2-5.2,9.4-9.1v-6.7c0-0.1,0.3-0.3,0.4-0.3c0.1-0.1,0.3-0.3,0.3-0.3c0.5-0.8,1.1-1.3,1.7-1.7
		c0.6-0.4,1.4-0.6,2.4-0.6c1.8,0,3.1,0.6,3.8,2c0.6,1.2,1,2.6,1.1,4.1c2.5,0.6,4.5,2.2,6.6,4c0.1-0.3,0.1-0.6,0.1-0.8
		c0.1-0.5,0.1-1,0.1-1.5C40.3,406.4,38.4,402.5,34.7,399.9z"/>
	<path class="st2" d="M106.9,400.4c-2.8-2-5.9-3.2-9.2-3.5c-0.3-0.1-0.7-0.1-1-0.1c-0.3,0-0.7-0.1-1-0.1c-0.6,0-1.3,0-1.9,0.1
		c-0.6,0-1.3,0.1-1.9,0.2c-1.5,0.3-3.4,0.7-4.8,1.3c-1.5,0.6-2.8,1.4-4.1,2.4v-3.8h-21v14c2.5-2.4,4.7-4.4,8.2-4.1
		c6.6,0.6,7.8,9,12.9,12.2v-11.2c0.6-0.4,1.3-0.8,1.8-1c0.6-0.3,1.3-0.3,1.8-0.3c1.1-0.1,2.2,0.3,3.1,1.1c1,0.8,1.4,1.9,1.4,3.4
		c0,1.7,0,3.4,0,5.2c0,1.1,0,2.3,0,3.4c6.4-2.9,11.9-12.7,18.9-15.3C109.3,402.7,108.4,401.4,106.9,400.4z"/>
	<path class="st2" d="M177.2,400.9L177.2,400.9c-0.7-0.8-1.5-1.5-2.5-2.1c-1.1-0.6-2.1-1.1-3.4-1.4c-0.8-0.3-1.7-0.3-2.6-0.4
		c-1-0.1-1.8,0-2.8,0c-0.3,0-0.6,0-0.8,0c-0.3,0-0.5-0.1-0.7-0.1c-3.6,0.3-6.9,1.3-9.9,3.2c-0.4,0.3-0.8,0.5-1.1,0.8
		c2.5,11.8,4.2,35.9,12.2,47.9c2.4-0.1,4.8-0.6,7.1-1.7c2.4-1,4.3-2.5,5.7-4.6c0.8,2.2,2.2,4,4.1,4.9c2,1,4,1.7,6.2,1.7
		c0.1,0,0.1,0,0.2,0s0.1,0,0.2,0c0.2,0,0.2-0.2,0.4-0.2c5.4-8.9,1.8-24.4,10.1-36v-16h-22.3L177.2,400.9L177.2,400.9z M177.2,436.4
		c0,0.5-0.6,0.9-1.2,1.1c-0.6,0.3-1,0.4-1.7,0.4c-1.1,0-2.3-0.4-3.2-1.1c-1-0.8-1.5-1.8-1.5-3.3c0-1.9,0-3.8,0-5.7
		c0-1.9,0-3.8,0-5.7c0-1.9,0-3.8,0-5.7s0-3.8,0-5.7c0-1.4,0.6-2.4,1.5-3.2c0.9-0.8,2.1-1.1,3.2-1.1c0.1,0,0.3,0,0.3,0
		c0.1,0,0.3-0.1,0.3,0c0.5,0.1,0.7,0.2,1.2,0.4c0.4,0.3,1,0.6,1,1V436.4z"/>
	<path class="st2" d="M255.5,413.4c0-2.4,0-4.8,0-7.3c0-1.6-0.2-3.1-1.1-4.3c-0.9-1.3-1.9-2.4-3.2-3.1c-1.3-0.8-2.7-1.1-4.3-1.5
		c-1.5-0.3-3.1-0.3-4.7-0.3c-0.3,0-0.6,0-0.9,0c-0.3,0-0.6-0.3-0.9-0.2c-2.2,0.2-4.7,0.5-6.9,1.2c-2.2,0.7-4.2,1.5-6.1,2.7v-3.7
		h-20.4v8.7c3.2-1.9,6.8-3.6,10.7-2.7c7.1,1.7,6.5,15.6,9.7,21.6v-14.7c0,0,0.4,0,0.6-0.1c0.1,0,0.3-0.1,0.3-0.1
		c0.1-0.1,0.3-0.1,0.4-0.1c0.1,0,0.2-0.1,0.3-0.1c0.3-0.1,0.6-0.1,0.8-0.1c0.2,0,0.4-0.1,0.6-0.1c1.1-0.1,2.1,0.3,2.9,1
		c0.8,0.8,1.1,1.8,1.1,3.1c0,4.3,0,8.6,0,12.9c0,0.1,0,0.1,0,0.2c3.2-1.9,6.7-6.7,12.4-6.4c4.3,0.3,6.4,3.1,8.8,5.6
		c0-1.7-0.2-3.4-0.2-5.2C255.5,418.2,255.5,415.8,255.5,413.4z"/>
	<path class="st2" d="M285.5,396.9v-9.6h-21.7V429c5.7-1.6,14.5-9.8,28.4-32.1H285.5z"/>
</g>
</svg>
